<?xml version="1.0" encoding="UTF-8"?>
<svg id="Layer_1" data-name="Layer 1" xmlns="http://www.w3.org/2000/svg" xmlns:xlink="http://www.w3.org/1999/xlink" viewBox="0 0 361.6 758.68">
  <defs>
    <style>
      .cls-1 {
        fill: #f6f0da;
      }

      .cls-1, .cls-2, .cls-3, .cls-4, .cls-5, .cls-6, .cls-7, .cls-8, .cls-9, .cls-10, .cls-11, .cls-12, .cls-13, .cls-14, .cls-15, .cls-16, .cls-17, .cls-18, .cls-19, .cls-20, .cls-21, .cls-22, .cls-23, .cls-24, .cls-25, .cls-26, .cls-27, .cls-28, .cls-29, .cls-30 {
        stroke-width: 0px;
      }

      .cls-2 {
        fill: #f45f5a;
      }

      .cls-3 {
        fill: #3d3030;
      }

      .cls-4 {
        fill: #5cc8d6;
      }

      .cls-5 {
        fill: #f7f4eb;
      }

      .cls-6 {
        fill: #d0e9c7;
      }

      .cls-8 {
        fill: #ffc83f;
      }

      .cls-9 {
        fill: #f3e8de;
      }

      .cls-10 {
        fill: none;
      }

      .cls-11 {
        fill: #695b5b;
      }

      .cls-12 {
        fill: #ff4f7e;
      }

      .cls-13 {
        fill: #ffd333;
      }

      .cls-14 {
        fill: #ff6e9e;
      }

      .cls-15 {
        fill: #fff;
      }

      .cls-16 {
        fill: #5ed3db;
      }

      .cls-17 {
        fill: #7fa3d3;
      }

      .cls-31 {
        clip-path: url(#clippath);
      }

      .cls-18 {
        fill: #f0be35;
      }

      .cls-19 {
        fill: #f7c554;
      }

      .cls-20 {
        fill: #f794b5;
      }

      .cls-21 {
        fill: #ffbb3c;
      }

      .cls-22 {
        fill: #a0d8d8;
      }

      .cls-23 {
        fill: #34357e;
      }

      .cls-24 {
        fill: #ae52bd;
      }

      .cls-25 {
        fill: #56a0e2;
      }

      .cls-26 {
        fill: #ec2144;
        fill-rule: evenodd;
      }

      .cls-27 {
        fill: #a091ff;
      }

      .cls-28 {
        fill: #e2683d;
      }

      .cls-29 {
        fill: #e6ac1e;
      }

      .cls-30 {
        fill: #fff7e8;
      }
    </style>
    <clipPath id="clippath">
      <rect class="cls-10" x="48.43" y="46.97" width="287.27" height="561.01"/>
    </clipPath>
  </defs>
  <g class="cls-31">
    <g>
      <g>
        <path class="cls-12" d="M215.98,8.42c-1.63-1.98-4.17-5.01-5.59-6.66-.39-.45-.95-.7-1.54-.7l-16.81.04c-.26,0-.48.22-.48.48v.56c0,.27-.22.48-.48.48h-86.42c-.27,0-.48-.22-.48-.48v-.37c0-.27-.22-.48-.48-.48l-12.93.03c-.89,0-1.61.72-1.61,1.61v129.61c0,.89.72,1.61,1.61,1.61h11.01c1.33,0,2.4-1.08,2.4-2.4v-3.61h97.23v3.61c0,1.33,1.08,2.4,2.4,2.4h11.01c.89,0,1.61-.72,1.61-1.61V9.71c0-.47-.16-.92-.46-1.29Z"/>
        <path class="cls-30" d="M104.19,130.41v-65.67c0-6.11,4.95-11.06,11.06-11.06h75.11c6.11,0,11.06,4.95,11.06,11.06v65.67c0,.72-.59,1.31-1.31,1.31h-94.61c-.72,0-1.31-.59-1.31-1.31Z"/>
        <path class="cls-4" d="M104.19,72.35v-7.85c0-5.98,4.84-10.82,10.82-10.82h75.59c5.98,0,10.82,4.84,10.82,10.82v7.85h-97.23Z"/>
        <path class="cls-3" d="M108.88,47.4c-1.77,0-3.24-.69-3.95-1.84-.49-.8-.53-1.72-.57-2.45-.6-12.8-.82-25.78-.65-38.6,0-.42.36-.75.77-.75.42,0,.75.35.75.77-.17,12.78.04,25.74.65,38.5.03.59.06,1.27.35,1.73.51.82,1.71,1.12,2.66,1.12,2.19,0,3.92-.03,5.59-.06,1.71-.03,3.47-.06,5.75-.06.42,0,.76.34.76.76s-.34.76-.76.76c-2.26,0-4.02.03-5.72.06-1.68.03-3.42.06-5.62.06Z"/>
        <path class="cls-6" d="M120.22,42.67V.81c0-.45.36-.81.81-.81h65.05c.45,0,.81.36.81.81v45.03c0,.45-.36.81-.81.81h-61.89c-2.2,0-3.98-1.78-3.98-3.98Z"/>
        <rect class="cls-12" x="159.91" y="7.89" width="16.16" height="34.6" rx="1.06" ry="1.06"/>
        <rect class="cls-3" x="205.71" y="118.98" width="7.07" height="7.07" rx=".66" ry=".66"/>
        <rect class="cls-3" x="93.08" y="118.98" width="7.07" height="7.07" rx=".66" ry=".66"/>
        <rect class="cls-4" x="118.2" y="98.35" width="70.71" height="1.26" rx=".63" ry=".63"/>
        <rect class="cls-4" x="118.2" y="114.76" width="70.71" height="1.26" rx=".63" ry=".63"/>
        <g>
          <path class="cls-11" d="M135.36,83.02c-.14-.51-.8-.75-1.21-.4-.39.37-.6.91-.92,1.34-.85,1.34-1.66,2.7-2.54,4.02,0-.22-.01-.44-.02-.66-.03-1.04-.09-2.07-.19-3.1-.09-.7-.11-1.82-1.04-1.88-.34,0-.63.25-.77.55-.22.42-.43.83-.65,1.25-.74,1.45-1.48,2.91-2.14,4.4-.41.94-.8,1.89-1.14,2.86-.1.36-.33.72-.28,1.09.07.8,1.28.88,1.47.1.81-2.54,1.88-4.72,3.13-7.15.06.98.09,2.1.12,3.09.09.94-.25,2.05.86,2.17.54-.02.9-.5,1.21-.89.4-.54.78-1.11,1.14-1.68.38-.6.76-1.21,1.14-1.82-.13,1.17-.24,2.34-.38,3.51-.09.76-.17,1.51-.26,2.27,0,.31-.15.64-.01.93.1.28.4.47.69.47.41,0,.76-.35.76-.76.07-.58.14-1.17.21-1.75.21-1.73.38-3.47.57-5.21.05-.89.34-1.89.23-2.75Z"/>
          <path class="cls-11" d="M140,90.43c.83-.49,1.59-1.24,1.78-2.22.18-.74-.12-1.52-.66-2.02-.86-.81-2.18-.47-3.01.2-.78.55-1.37,1.32-1.74,2.19-.34.75-.59,1.59-.45,2.42.2,1.57,1.05,2.43,2.65,2.49.82.05,1.63-.22,2.32-.66.26-.18.59-.34.67-.67.2-.63-.56-1.2-1.11-.86-.75.5-.72.51-1.45.67-.18.02-.36,0-.54,0-.11-.02-.38-.08-.53-.13-.02-.01-.04-.02-.07-.04-.04-.03-.07-.07-.11-.11,0-.01-.02-.02-.03-.03-.05-.08-.1-.16-.14-.24,0-.02-.01-.03-.02-.04-.01-.03-.02-.07-.03-.11.88-.12,1.73-.37,2.49-.84ZM138.27,88.28c.07-.07.2-.23.27-.29.06-.07.22-.2.29-.26.21-.16.44-.31.68-.43.07-.03.14-.05.22-.06.06,0,.16,0,.23,0,0,0,.02,0,.03,0,.03.01.06.03.08.05.03.03.07.06.1.1.05.06.08.13.12.2,0,.02.02.05.02.09,0,.04,0,.08,0,.12-.01.07-.02.14-.04.2-.01.03-.02.06-.03.08-.48.95-1.58,1.46-2.72,1.65.17-.52.29-.78.75-1.46Z"/>
          <path class="cls-11" d="M151.15,87.46c-.85-1.22-2.25-.62-3.04.33-.01-.03-.02-.06-.04-.09-.67-1.47-2.18-1.04-3.09-.06-.02.02-.03.03-.05.05.06-.31.11-.62.11-.93-.07-.8-1.28-.88-1.47-.1-.22,1.43-.49,2.86-.77,4.28-.06.49-.27,1-.19,1.49.1.39.54.64.93.53.32-.08.49-.37.59-.65.16-.41.31-.82.47-1.22.22-.57.95-2.02,1.69-2.59.02-.02.05-.04.07-.05.09-.06.19-.13.29-.17,0,0,0,0,0,0,0,0,.01,0,.02,0,0,0,0,0,0,0,.02.04.04.08.06.12,0,0,0,0,0,0,.02.05.03.09.04.14.05,1.17-.03,1.54-.21,2.47-.04.18-.11.37-.15.56,0,0,0,0,0,0,0,0,0,0,0,0-.05.2-.05.41.07.6.21.36.68.48,1.04.27.32-.18.38-.56.5-.87.21-.59.41-1.18.65-1.77,0,0,0-.02.01-.03.41-.8.39-.82.9-1.3.02-.01.03-.03.05-.04.04-.03.12-.08.2-.12.02,0,.04-.01.06-.02,0,.01.01.02.02.04,0,.03.02.06.03.11.1.51.06,1.59-.18,2.52-.06.54-.52,1.09-.23,1.62.23.42.85.5,1.19.15.36-.49.43-1.15.58-1.72.19-1.15.44-2.47-.14-3.54Z"/>
          <path class="cls-11" d="M158.34,87.17c-.38-1.26-1.72-1.92-2.97-1.52-.45.13-.87.35-1.23.65-.14.12-.31.24-.41.39-.04.03-.09.06-.13.1-1.03,1.32-1.79,3.34-1.01,4.94,1.45,2.2,3.9.82,5.02-.95.71-1.03,1.13-2.39.73-3.62ZM156.46,89.79c-.64,1.06-1.6,1.71-2.15,1.54-.06-.03-.13-.07-.19-.11-.06-.05-.11-.1-.16-.16-.02-.03-.04-.06-.06-.1,0-.03-.02-.06-.03-.09-.13-.52-.1-.59-.03-1.03.21-1.05.57-1.52.93-2.1.33-.19.31-.31.54-.42.46-.24.07-.09.66-.26.02,0,.03,0,.04,0,.05,0,.1,0,.16,0,.04,0,.08,0,.12,0,.05.01.11.03.16.05.05.03.13.06.19.1.04.03.07.07.1.1.06.08.11.16.15.25.18.39.19,1.32-.41,2.23Z"/>
          <path class="cls-11" d="M163.39,86.42c-.67-.2-1.36.04-1.92.41-.03.02-.06.05-.09.07.07-.25.1-.49-.04-.72-.31-.57-1.23-.45-1.38.18-.35,1.35-1.19,4.03-1.38,4.88-.03.09-.07.19-.1.28-.19.65.52,1.23,1.11.88.18-.1.3-.29.36-.48.02-.06.04-.13.05-.19.02-.06.04-.11.06-.17.63-1.83,1.85-3.61,2.81-3.7.01,0,.02,0,.04,0,.04,0,.07.02.11.03.03.02.06.03.08.05.01.01.03.03.05.04.1.11.2.23.35.27.34.17.76,0,.95-.31.4-.71-.44-1.33-1.05-1.53Z"/>
          <path class="cls-11" d="M167.47,86.88c-.07-.8-1.28-.88-1.47-.1-.27,1-.49,2.01-.77,3.01-.19.68-.38,1.36-.56,2.04-.03.1-.04.2-.01.3.04.61.87.87,1.28.43.09-.09.16-.21.19-.33.18-.64.35-1.28.53-1.92.23-.84.44-1.7.65-2.55.05-.29.22-.58.17-.88Z"/>
          <path class="cls-11" d="M167,82.54c-.27.17-.5.51-.43.84.02.22.12.38.26.49.17.18.43.28.73.19,1.22-.39.61-2.11-.56-1.52Z"/>
          <path class="cls-11" d="M173.48,90.86c-.28,0-.5.19-.75.3,0,0,0,0,0,0-.3.12-.62.21-.95.26-.41.02-1-.08-1.38-.48,1.39-.33,2.83-.85,3.63-2.09.65-1.03.46-2.45-.67-3.06-1.06-.55-2.33-.08-3.19.64-2.25,1.83-2.46,5.86.91,6.46.78.13,1.58-.06,2.29-.38.33-.15.73-.31.83-.7.14-.47-.25-.96-.73-.96ZM171.09,87.63c.49-.36.69-.45.88-.5.3-.05.07-.05.52-.05.04,0,.08.02.11.03.02.01.05.03.08.05.04.03.09.08.14.13,0,0,0,0,0,0,.02.06.04.13.05.19,0,.07,0,.14,0,.2-.01.06-.02.11-.04.17,0,.02-.01.03-.02.04-.05.09-.1.19-.16.27,0,0,0,0,0,0-.04.05-.14.16-.2.22-.05.05-.12.11-.18.16-.83.58-1.18.63-2.23.91.14-.72.6-1.45,1.04-1.84Z"/>
          <path class="cls-11" d="M180.49,86.15c-.99-1.14-2.77-.89-3.6.31-.52.69-.55,1.68-.02,2.37.26.39.68.64.99.98.37.41.53.76.53,1.1,0,.03,0,.07,0,.1,0,.02,0,.03-.01.05-.01.05-.03.09-.04.14,0,0,0,0,0,.01,0,.02-.02.04-.03.05-.02.03-.04.06-.05.08-.01.02-.03.03-.04.05-.25.23-.12.16-.54.37,0,0,0,0-.01,0-.01,0-.02,0-.03,0-.02,0-.05-.01-.08-.02-.08-.04-.15-.08-.23-.13-.24-.18-.46-.38-.69-.74-.2-.27-.01-.31-.46-.65-.41-.25-.99-.01-1.11.45-.12.64.45,1.25.84,1.7.64.7,1.69,1.21,2.58.68,1.37-.66,1.81-2.22,1.04-3.52-.2-.35-.46-.67-.75-.96-.22-.21-.46-.38-.66-.61-.01-.02-.03-.04-.04-.07-.02-.04-.04-.07-.05-.09-.01-.04-.02-.07-.03-.11,0-.02,0-.03,0-.05.01-.06.03-.12.05-.17.02-.04.06-.12.1-.18.05-.06.1-.11.15-.16.11-.07.22-.13.34-.19.03,0,.07-.02.13-.03.05,0,.1,0,.13,0,.05,0,.1.02.15.03,0,0,0,0,0,0,.06.03.13.06.19.1.06.05.12.11.17.17.71.69,1.76-.36,1.07-1.07Z"/>
        </g>
        <path class="cls-3" d="M105.49,132.48c-.42,0-.76-.34-.76-.75,0-.42.34-.76.75-.76l94.49-.34h0c.42,0,.76.34.76.75,0,.42-.34.76-.75.76l-94.49.34h0Z"/>
      </g>
      <g>
        <g>
          <polygon class="cls-7" points="229.5 353.06 265.21 348.69 248.29 358.82 229.5 353.06"/>
          <g>
            <path class="cls-28" d="M216.51,381.65l-2.32,40.97,35.94.39v-29.93c9.74,1.68,15.27,28.06,31.77,29.97,25.74,2.98,50.55-3.41,50.09-6.6l-5.57-19.33-109.91-15.47Z"/>
            <path class="cls-7" d="M295.64,424.27c-4.47,0-9.12-.23-13.83-.78-9.73-1.13-15.61-10.24-20.8-18.28-3.42-5.3-6.67-10.33-10.26-11.51v29.31c0,.12-.07.23-.18.31-.12.08-.28.13-.44.13l-35.94-.39c-.16,0-.32-.05-.43-.14-.11-.09-.17-.2-.17-.32l2.32-40.97c0-.13.09-.25.23-.33.14-.08.32-.11.49-.09l109.91,15.47c.24.03.43.17.48.34l5.57,19.33s0,.03,0,.04c.08.54-.32,1.12-1.17,1.7-3.75,2.57-18.32,6.16-35.78,6.16ZM250.13,392.64s.09,0,.14.01c4.47.77,7.88,6.06,11.83,12.18,5.06,7.84,10.8,16.73,19.89,17.78,22.76,2.64,44.03-2.02,48.59-5.15.54-.37.82-.71.8-.95l-5.48-19.02-108.82-15.31-2.26,40,34.7.38v-29.48c0-.14.09-.26.23-.35.11-.06.24-.1.38-.1Z"/>
          </g>
          <g>
            <path class="cls-22" d="M229.5,353.06c12.73,1.92,24.58.24,35.71-4.37,0,0,16.93,29.93,31.97,34.59,11.48,3.56,12.32.38,20.57,2.14,8.86,1.89,8.68,11.69,8.68,11.69,0,0-19.01,6.72-39.42,3.03-20.41-3.7-24.58-8.24-35.71-11.77-11.13-3.53-34.78-6.72-34.78-6.72,1.75-11.19,5.68-20.97,12.99-28.58Z"/>
            <path class="cls-7" d="M299.74,401.68c-4.12,0-8.48-.31-12.89-1.11-13.61-2.47-19.95-5.26-26.09-7.97-3.08-1.36-5.99-2.64-9.71-3.82-10.94-3.47-34.41-6.66-34.65-6.7-.31-.04-.53-.25-.49-.48,1.9-12.17,6.18-21.58,13.09-28.78.14-.15.38-.22.62-.18,12.1,1.82,23.97.37,35.28-4.32.15-.06.33-.08.5-.03.17.04.3.13.37.25.17.3,17,29.81,31.64,34.35,6.5,2.01,9.52,1.82,12.44,1.64,2.2-.14,4.47-.28,8.06.48,9.19,1.96,9.13,11.71,9.12,12.12,0,.17-.14.32-.34.39-.15.05-12.01,4.17-26.95,4.17ZM217.18,381.29c3.65.51,24.24,3.47,34.36,6.68,3.8,1.2,6.74,2.5,9.86,3.88,6.06,2.67,12.33,5.43,25.75,7.87,18.45,3.35,35.99-2.01,38.66-2.88-.06-1.57-.74-9.39-8.24-10.99-3.37-.72-5.43-.59-7.61-.45-3.07.19-6.24.39-13.02-1.71-14.25-4.42-29.74-30.42-32.03-34.37-11.28,4.55-23.09,5.98-35.14,4.23-6.58,6.97-10.7,16.05-12.59,27.73Z"/>
          </g>
          <g>
            <path class="cls-5" d="M294.88,403.1c-14.77,0-22.97-3.78-31.58-7.75-4.76-2.2-9.69-4.47-16.13-6.37-15.25-4.5-29.1-5.65-30.66-5.67-1.26-.01-2.29-.77-2.28-1.68,0-.92,1.02-1.65,2.28-1.65,1.62,0,16.07,1.1,32.39,5.91,6.83,2.01,11.93,4.37,16.87,6.64,10.21,4.71,18.28,8.42,36.9,6.89,12.42-1.02,22.84-3.84,22.94-3.87,1.19-.32,2.51.11,2.96.97.45.86-.15,1.82-1.34,2.15-.44.12-11.04,2.99-24.05,4.06-2.99.25-5.74.36-8.3.36Z"/>
            <path class="cls-7" d="M294.88,403.54c-14.94,0-23.18-3.8-31.91-7.82-4.74-2.19-9.65-4.45-16.04-6.33-15.17-4.47-28.9-5.62-30.45-5.63-1.6-.02-2.89-.97-2.88-2.13.01-1.15,1.31-2.09,2.89-2.09s16.21,1.11,32.62,5.94c6.88,2.03,12.01,4.39,16.97,6.68,10.11,4.66,18.09,8.34,36.5,6.83,12.36-1.02,22.69-3.82,22.8-3.85.73-.2,1.52-.18,2.22.05.71.23,1.25.65,1.52,1.18.57,1.09-.19,2.31-1.69,2.72-.45.12-11.12,3.01-24.2,4.09-2.92.24-5.73.36-8.37.36ZM216.51,380.42c-.92,0-1.67.55-1.68,1.22,0,.67.75,1.22,1.68,1.24,1.58.02,15.54,1.18,30.88,5.7,6.49,1.91,11.44,4.2,16.23,6.4,8.57,3.95,16.66,7.68,31.26,7.68,2.59,0,5.36-.12,8.23-.36,12.93-1.06,23.46-3.92,23.9-4.04.87-.24,1.31-.95.98-1.58-.16-.31-.47-.55-.89-.68-.41-.13-.87-.15-1.29-.03-.1.03-10.55,2.87-23.09,3.9-18.83,1.55-26.98-2.21-37.29-6.96-4.91-2.26-9.99-4.61-16.77-6.6-16.23-4.78-30.56-5.88-32.16-5.88Z"/>
          </g>
          <path class="cls-7" d="M251.76,380.41c-.31,0-.58-.17-.61-.4l-3.47-26.68c-.03-.24.21-.46.55-.48.33-.02.63.16.66.4l3.47,26.68c.03.24-.21.46-.55.48-.02,0-.04,0-.06,0Z"/>
          <g>
            <polygon class="cls-5" points="245.5 353.28 243.64 364.67 256.43 363.49 250.36 352.97 245.5 353.28"/>
            <path class="cls-7" d="M243.64,365.11c-.16,0-.31-.05-.43-.13-.13-.1-.2-.23-.18-.37l1.86-11.38c.03-.21.26-.37.55-.39l4.87-.31c.26-.02.51.09.61.27l6.07,10.52c.07.13.06.27-.03.39-.1.12-.26.2-.45.22l-12.79,1.18s-.05,0-.08,0ZM246.04,353.69l-1.71,10.47,11.23-1.03-5.59-9.68-3.93.25Z"/>
          </g>
        </g>
        <path class="cls-1" d="M316.69,392.82c-.54,0-1.08-.13-1.53-.39-1.75-1.02-4.59-1.26-7.6-.66-1.31.26-2.66-.29-3.03-1.24-.36-.95.4-1.93,1.71-2.19,4.52-.91,9-.42,11.98,1.31,1.06.62,1.23,1.74.38,2.51-.49.44-1.2.67-1.92.67Z"/>
        <path class="cls-1" d="M292.58,388.91c-.34,0-.69-.05-1.03-.16-18.2-6.08-29.74-28.37-30.22-29.31-.47-.92.18-1.95,1.45-2.29,1.27-.34,2.69.13,3.16,1.05.11.22,11.32,21.85,27.67,27.31,1.23.41,1.77,1.47,1.21,2.36-.41.65-1.3,1.04-2.23,1.04Z"/>
        <path class="cls-1" d="M223.34,378c-.17,0-.35-.01-.53-.04-1.33-.21-2.17-1.16-1.88-2.12,1.51-5,4.03-9.94,6.27-14.18.49-.92,1.91-1.38,3.18-1.03,1.27.35,1.9,1.38,1.42,2.3-2.18,4.12-4.62,8.91-6.06,13.67-.25.83-1.27,1.4-2.4,1.4Z"/>
      </g>
      <g>
        <g>
          <polygon class="cls-7" points="285.64 742.85 285.64 755.01 270.19 755.01 270.19 743.81 285.64 742.85"/>
          <path class="cls-7" d="M266.99,745.45l-8.85,9.56h-30.9s-2.07-7.58,5.84-8.74c7.13-1.05,10.93-6.42,10.93-6.42l22.99,5.6Z"/>
        </g>
        <g>
          <polygon class="cls-7" points="351.76 729.13 359.13 740.04 345.26 744.97 338.46 734.91 351.76 729.13"/>
          <path class="cls-7" d="M336.58,737.41l-2.15,11.41-27.75,9.86s-6.46-6.15-.06-9.71c5.77-3.21,5.92-9.25,5.92-9.25l24.04-2.3Z"/>
        </g>
        <g>
          <g>
            <path class="cls-19" d="M226.35,626.78s-7.22,9.16-11.12,7.99c-2.73-.82,4.73-5.84,3.67-6.56-1.05-.72-16.49,12.98-17.9,12.16-1.41-.82.38-3.14.38-3.14,0,0-1.22.82-1.98.27-.75-.55,1.7-3.88,1.7-3.88,0,0-1.6,1.14-2.36.6-.75-.55,3.01-5.33,3.01-5.33,0,0-2.08,1.63-3.11.81-1.03-.81,1.89-3.41,4.24-4.64,2.36-1.23,6.78-3.48,6.78-3.48l16.67,5.19Z"/>
            <path class="cls-7" d="M201.16,640.85c-.2,0-.37-.05-.52-.14-1.06-.62-.84-1.73-.45-2.59-.42.03-.84-.05-1.2-.32-.57-.41-.34-1.43.66-3.03-.49.08-.95.02-1.32-.25-.26-.19-.9-.65,1.68-4.23-.21.05-.42.08-.63.08h0c-.45,0-.86-.13-1.16-.37-.2-.16-.43-.44-.36-.9.19-1.37,2.85-3.43,4.7-4.39,2.33-1.22,6.74-3.46,6.79-3.49.17-.09.4-.1.59-.04l16.67,5.19c.16.05.28.15.34.27.06.12.04.25-.05.36-.77.97-7.61,9.46-11.88,8.18-.59-.18-.83-.49-.92-.72-.36-.92.79-2.19,2.59-4.01.4-.41.93-.94,1.3-1.37-1.5.95-4.35,3.16-6.74,5.01-6.71,5.21-8.94,6.76-10.08,6.76ZM201.39,636.78c.13,0,.27.03.38.1.23.13.3.37.15.56-.47.61-1.2,1.97-.65,2.49,1.25-.37,5.93-4.01,9.07-6.45,5.71-4.43,7.51-5.73,8.43-5.75.2,0,.41.05.55.15.82.56-.16,1.56-1.66,3.08-1.05,1.06-2.64,2.67-2.41,3.25.01.03.04.09.21.14,2.38.71,7.24-3.98,10.01-7.37l-15.73-4.9c-1.01.51-4.51,2.3-6.5,3.34-2,1.04-4.08,2.91-4.2,3.77,0,.06-.01.17.05.21.08.06.15.08.27.08h0c.55,0,1.47-.53,1.95-.9.21-.16.56-.19.81-.05.25.13.32.38.17.57-1.49,1.89-3.01,4.2-3.04,4.82.24.01.89-.24,1.42-.62.21-.15.55-.17.79-.04.24.13.31.37.17.56-1.06,1.45-1.87,3-1.77,3.38.3.15.95-.21,1.1-.31.12-.08.26-.12.41-.12ZM199.89,637.23h0Z"/>
          </g>
          <path class="cls-7" d="M201.39,637.67c-.11,0-.22-.02-.32-.07-.29-.13-.37-.4-.2-.61.23-.27,5.73-6.65,10.11-9.13.26-.15.65-.12.85.08.21.19.16.47-.11.62-4.21,2.38-9.77,8.84-9.83,8.9-.12.13-.31.21-.52.21Z"/>
          <path class="cls-7" d="M201.11,634.06c-.08,0-.16-.01-.23-.03-.31-.09-.46-.35-.33-.58,1.8-3.2,7.71-7.37,7.96-7.54.24-.17.63-.17.86,0,.23.18.23.45-.01.62-.06.04-5.97,4.22-7.68,7.24-.1.17-.32.27-.56.27Z"/>
          <path class="cls-7" d="M201.77,629.33c-.1,0-.2-.02-.29-.05-.3-.12-.41-.38-.25-.6,1.32-1.78,4.1-3.35,4.21-3.42.27-.15.65-.11.85.08.21.19.16.47-.11.62-.03.01-2.69,1.53-3.89,3.14-.11.15-.32.23-.54.23Z"/>
        </g>
        <g>
          <g>
            <path class="cls-19" d="M333.02,638.29s7.22,9.16,11.12,7.99c2.73-.82-4.73-5.84-3.67-6.56,1.05-.72,16.49,12.98,17.9,12.16,1.41-.82-.38-3.14-.38-3.14,0,0,1.22.82,1.98.27.75-.55-1.7-3.88-1.7-3.88,0,0,1.6,1.14,2.36.6s-3.01-5.33-3.01-5.33c0,0,2.08,1.63,3.11.81,1.03-.81-1.89-3.41-4.24-4.64-2.36-1.23-6.78-3.48-6.78-3.48l-16.67,5.19Z"/>
            <path class="cls-7" d="M358.22,652.36c-1.13,0-3.37-1.55-10.08-6.76-2.39-1.85-5.24-4.07-6.74-5.01.37.43.89.96,1.3,1.37,1.8,1.82,2.95,3.09,2.59,4.01-.09.23-.32.54-.92.72-4.27,1.29-11.11-7.21-11.88-8.18-.09-.11-.1-.24-.05-.36.06-.12.18-.22.34-.27l16.67-5.19c.19-.06.42-.04.59.04.04.02,4.46,2.27,6.79,3.49,1.85.96,4.51,3.03,4.7,4.39.06.46-.16.74-.36.9-.31.24-.71.37-1.16.37-.23.01-.43-.03-.64-.08,2.59,3.58,1.95,4.04,1.68,4.23-.37.27-.83.32-1.32.25,1,1.61,1.22,2.62.66,3.03-.37.26-.79.34-1.2.32.39.85.61,1.97-.45,2.59-.15.09-.32.14-.53.14ZM340.57,639.25s.02,0,.03,0c.92.02,2.72,1.31,8.43,5.75,3.14,2.44,7.82,6.07,9.07,6.45.55-.52-.18-1.88-.65-2.49-.15-.19-.08-.43.16-.56.23-.13.57-.12.79.02.15.1.8.45,1.1.31.11-.38-.7-1.93-1.77-3.38-.14-.19-.07-.43.17-.56.24-.13.58-.11.79.04.53.38,1.17.64,1.42.62-.03-.61-1.55-2.92-3.04-4.82-.15-.19-.08-.44.17-.57.25-.13.6-.11.81.05.48.37,1.4.9,1.95.9h0c.12,0,.19-.02.27-.08.06-.05.06-.15.05-.21-.12-.86-2.2-2.72-4.2-3.77-1.99-1.04-5.49-2.82-6.5-3.34l-15.73,4.9c2.77,3.39,7.64,8.08,10.01,7.37.18-.05.2-.11.21-.14.23-.58-1.36-2.19-2.41-3.25-1.5-1.51-2.48-2.51-1.66-3.08.14-.1.33-.15.53-.15ZM359.49,648.74h0Z"/>
          </g>
          <path class="cls-7" d="M357.99,649.18c-.2,0-.4-.07-.52-.21-.06-.06-5.62-6.52-9.83-8.9-.27-.15-.31-.43-.11-.62.21-.19.59-.23.85-.08,4.38,2.48,9.88,8.86,10.11,9.13.18.21.09.48-.2.61-.1.05-.21.07-.32.07Z"/>
          <path class="cls-7" d="M358.27,645.57c-.24,0-.47-.1-.56-.27-1.71-3.03-7.62-7.2-7.68-7.24-.24-.17-.25-.45-.01-.62.23-.18.62-.18.86,0,.25.18,6.15,4.34,7.96,7.54.13.23-.02.48-.33.58-.08.02-.15.03-.23.03Z"/>
          <path class="cls-7" d="M357.61,640.84c-.22,0-.43-.08-.54-.23-1.2-1.61-3.86-3.12-3.89-3.14-.27-.15-.31-.43-.11-.62.21-.19.59-.23.85-.08.12.07,2.89,1.64,4.21,3.42.16.21.05.48-.25.6-.09.04-.19.05-.29.05Z"/>
        </g>
        <path class="cls-7" d="M266.04,516.91s.1-10.25,15.97-9.15c15.87,1.09,16.06,6.83,16.06,6.83,0,0,5.84-.96,6.41,2.32.57,3.28-2.97,6.01-2.97,6.01,0,0,4.86-.55,5.99,1.5,1.13,2.05-1.13,5.6-1.13,5.6,0,0,5.65-1.78,6.97,0,1.32,1.78-.94,5.33-.94,5.33,0,0,6.03-.14,6.78,2.87.75,3.01-4.71,6.28-4.71,6.28l-52.38,3.96s-7.16-1.09-7.91-4.37c-.75-3.28,3.96-4.92,3.96-4.92,0,0-2.83-2.32-2.83-4.1s4.33-3.55,4.33-3.55c0,0-4.9-.82-4.33-4.23.57-3.42,5.09-4.64,5.09-4.64,0,0-3.96-2.19-1.51-4.92,2.45-2.73,7.16-.82,7.16-.82Z"/>
        <g>
          <polygon class="cls-19" points="273.39 536.04 273.39 545.33 255.49 570.74 290.31 570.74 290.31 533.17 273.39 536.04"/>
          <path class="cls-7" d="M290.31,571.18h-34.81c-.21,0-.41-.08-.52-.21-.11-.13-.12-.29-.02-.43l17.83-25.31v-9.18c0-.2.2-.38.47-.43l16.91-2.87c.18-.03.37,0,.52.08.15.08.23.21.23.35v37.57c0,.24-.27.44-.61.44ZM256.49,570.29h33.21v-36.57l-15.7,2.66v8.94c0,.07-.02.14-.07.2l-17.45,24.77ZM273.39,545.33h0,0Z"/>
        </g>
        <g>
          <path class="cls-19" d="M270.38,518.28s-4.76,22.54,10.15,21.58c14.91-.96,13.02-14.21,13.02-13.93s.08-8.47.08-8.47l-23.25.82Z"/>
          <path class="cls-7" d="M279.62,540.33c-2.44,0-4.5-.64-6.13-1.89-6.79-5.25-3.85-19.62-3.72-20.23.04-.21.28-.36.57-.37l23.25-.82c.17,0,.33.04.45.12.12.08.19.2.19.32l-.07,8.11c0,.11,0,.22-.01.32.03.11.04.24.05.36.11,1.34.65,13.14-13.62,14.05-.32.02-.64.03-.96.03ZM270.91,518.7c-.41,2.26-2.35,14.64,3.47,19.13,1.59,1.23,3.58,1.75,6.09,1.59,3.8-.24,6.8-1.35,8.92-3.27,4.21-3.84,3.61-9.73,3.56-10.13,0-.03-.01-.06-.01-.09,0,0,0-.01,0-.02,0-.31.05-5.09.07-7.98l-22.1.78Z"/>
        </g>
        <g>
          <g>
            <ellipse class="cls-28" cx="272.17" cy="525.04" rx="6.88" ry="4.99"/>
            <path class="cls-7" d="M272.17,530.47c-4.13,0-7.49-2.43-7.49-5.43s3.36-5.43,7.49-5.43,7.49,2.43,7.49,5.43-3.36,5.43-7.49,5.43ZM272.17,520.5c-3.46,0-6.27,2.04-6.27,4.54s2.81,4.54,6.27,4.54,6.27-2.04,6.27-4.54-2.81-4.54-6.27-4.54Z"/>
          </g>
          <g>
            <ellipse class="cls-28" cx="288.89" cy="525.04" rx="6.88" ry="4.99"/>
            <path class="cls-7" d="M288.89,530.47c-4.13,0-7.49-2.43-7.49-5.43s3.36-5.43,7.49-5.43,7.49,2.43,7.49,5.43-3.36,5.43-7.49,5.43ZM288.89,520.5c-3.46,0-6.27,2.04-6.27,4.54s2.81,4.54,6.27,4.54,6.27-2.04,6.27-4.54-2.81-4.54-6.27-4.54Z"/>
          </g>
          <path class="cls-7" d="M282.01,525.48h-2.97c-.34,0-.61-.2-.61-.44s.27-.44.61-.44h2.97c.34,0,.61.2.61.44s-.27.44-.61.44Z"/>
        </g>
        <path class="cls-7" d="M272.17,519.24s.47,1.37,2.92.82,3.96-2.6,3.96-2.6c0,0,.66,2.73,2.97,2.6s4.66-3.28,4.66-3.28c0,0-1.37,4.46,2.22,4.23s5.79-3.69,5.79-3.69l-2.07-3.42-20.44,1.23v4.1Z"/>
        <g>
          <path class="cls-28" d="M263.39,559.52s-2.06,9.03,8.78,9.57c10.83.55,14.5-9.57,14.5-9.57l14.84,68.86s-5.74,27.32,11.64,54.91c19.33,30.68,39.56,46.72,39.56,46.72,0,0-10.93,10.11-19.22,12.84-15.23,5.02-28,6.35-28,6.35-23.48-35.86-34-88.59-33.32-98.42,0,0-10.64,43.44,21.46,91.25,0,0-17.41,6.01-28.34,5.46-10.93-.55-26.75-3.55-26.75-3.55,0,0-3.39-43.44-1.88-64.48,1.51-21.04,2.64-65.02,2.64-65.02l16.2-50.82,7.9-4.11Z"/>
          <path class="cls-7" d="M305.49,749.65c-.23,0-.45-.1-.55-.25-20.21-30.87-31.18-75.38-33.11-92.93-.6,4.81-1.13,12.47-.37,22.01,1.23,15.31,6.17,38.74,22.71,63.36.07.11.08.23.03.34-.05.11-.17.2-.31.25-.72.25-17.67,6.05-28.64,5.51-10.86-.54-26.71-3.53-26.87-3.57-.26-.05-.44-.21-.45-.4-.03-.43-3.38-43.7-1.88-64.52,1.49-20.79,2.63-64.57,2.64-65.01,0-.03,0-.06.02-.09l16.2-50.82c.03-.1.12-.2.24-.26l7.9-4.11c.2-.1.47-.11.68-.02.21.09.32.27.28.45,0,.04-.92,4.26,1.97,6.91,1.41,1.29,3.51,2.01,6.25,2.15.26.01.52.02.78.02,9.61,0,13.06-9.17,13.09-9.27.07-.2.33-.35.62-.33.29.01.53.17.57.37l14.84,68.86s0,.09,0,.13c-.06.27-5.51,27.52,11.59,54.66,19.06,30.26,39.26,46.44,39.46,46.6.2.16.21.4.03.57-.45.42-11.12,10.22-19.44,12.97-15.13,4.99-28.04,6.38-28.17,6.39-.03,0-.06,0-.09,0ZM272.17,650.34s.05,0,.07,0c.32.03.56.23.54.46-.71,10.31,10.22,62.81,33.07,97.91,2.37-.29,14-1.85,27.4-6.27,7.28-2.4,16.82-10.76,18.67-12.42-2.77-2.29-21.55-18.34-39.32-46.55-16.83-26.72-12-53.54-11.7-55.09l-14.45-67.06c-1.64,2.94-5.93,8.64-14.32,8.21-3.1-.16-5.49-.99-7.12-2.49-2.34-2.15-2.47-5.08-2.35-6.6l-6.62,3.44-16.14,50.61c-.04,1.66-1.17,44.49-2.64,64.99-1.42,19.82,1.55,60.08,1.86,64.11,2.6.48,16.46,2.97,26.21,3.46,9.57.48,24.43-4.23,27.48-5.24-16.41-24.62-21.33-48-22.56-63.32-1.34-16.69,1.29-27.69,1.32-27.8.05-.21.31-.36.6-.36Z"/>
        </g>
        <g>
          <path class="cls-22" d="M299.45,541.87s13.19-.49,19.79,3.1c12.87,6.99,14.12,56.64,26.68,72.13,2.68,3.3-20.1,7.47-20.1,7.47l1,29.81-46.31-2.85,18.93-109.65Z"/>
          <path class="cls-7" d="M326.84,654.81s-.03,0-.05,0l-46.31-2.85c-.16-.01-.32-.07-.42-.16-.1-.09-.15-.21-.13-.33l18.93-109.65c.04-.21.28-.38.57-.39.55-.02,13.49-.45,20.19,3.18,6.99,3.79,10.52,19.29,14.27,35.7,3.29,14.41,6.69,29.31,12.57,36.55.36.44.4.93.12,1.42-1.73,3.01-16.79,5.99-20.12,6.62l.99,29.46c0,.13-.07.25-.19.33-.11.08-.26.12-.42.12ZM281.21,651.11l45,2.77-.99-29.32c0-.21.18-.39.46-.44,5.04-.92,18.41-3.83,19.77-6.19.13-.23.12-.43-.05-.63-5.99-7.38-9.41-22.37-12.72-36.86-3.54-15.51-7.21-31.56-13.8-35.14-5.62-3.05-16.42-3.06-18.89-3.02l-18.78,108.82Z"/>
        </g>
        <g>
          <polygon class="cls-22" points="216.81 608.89 244.44 572.1 247.2 584.49 236.27 618.73 216.81 608.89"/>
          <path class="cls-7" d="M236.27,619.17c-.12,0-.24-.03-.35-.08l-19.46-9.84c-.25-.13-.33-.38-.19-.57l27.63-36.79c.12-.17.38-.25.64-.22.26.03.46.18.5.36l2.76,12.39c.01.06.01.11,0,.17l-10.94,34.24c-.05.14-.19.26-.37.31-.07.02-.15.03-.22.03ZM217.6,608.76l18.27,9.24,10.71-33.52-2.46-11.03-26.52,35.31Z"/>
        </g>
        <g>
          <path class="cls-5" d="M213.75,607.81c.21.12.41.25.61.38-.45-.3.82-3.54,1.26-3.95,1.05-.99,3.62-1.42,5.14-.66,1.99.99.46,2.18,1.12,3.69.74-.14,1.16-.72,1.84-.97,1.02-.38,2.32.13,2.86.86.54.73.51,1.61.48,2.44,1.22-.7,2.64-1.44,4.17-1.24,1.17.15,2.09.86,2.57,1.65.47.79.58,1.67.67,2.53.37,3.38.63,6.94-1.37,10.01-1,1.54-.78,2.94-2,4.39-1.22,1.45-3.54,2.52-5.86,2.28-2.32-.25-4.23-2.11-3.41-3.71-.97,1.26-3.6,1.48-5.23.65s-2.31-2.4-2.14-3.84c-1.75.45-3.65.6-5.5.43-.33-.03-.69-.08-.91-.26-.19-.15-.25-.36-.29-.56-.27-1.49.57-3.06,2.15-4.02-1.63.7-3.5,1.22-5.38,1.06s-3.7-1.2-3.88-2.56c-.15-1.2.99-2.34,2.43-2.95s3.13-.81,4.78-.99c-2.11-1.05-2.43-3.54-.63-4.86,2.02-1.48,4.65-.86,6.54.22Z"/>
          <path class="cls-7" d="M225.88,629.68c-.25,0-.5-.01-.75-.04-1.39-.15-2.73-.82-3.49-1.75-.32-.39-.52-.81-.6-1.23-.35.15-.75.26-1.18.34-1.26.21-2.62.03-3.63-.49-1.47-.75-2.36-2.09-2.42-3.6-1.6.32-3.29.41-4.94.26-.29-.03-.88-.08-1.28-.4-.31-.24-.4-.54-.45-.8-.18-.98.09-2.01.71-2.89-1.2.3-2.32.4-3.4.31-1.98-.17-4.2-1.27-4.41-2.96-.16-1.27.91-2.6,2.73-3.37,1.18-.5,2.5-.74,3.78-.91-.6-.55-.98-1.24-1.08-2-.14-1.11.34-2.16,1.32-2.88,1.84-1.34,4.41-1.35,6.96-.02.25-1.3,1.19-3.1,1.39-3.28,1.3-1.23,4.26-1.61,5.96-.76,1.51.75,1.38,1.67,1.27,2.47-.04.29-.08.58-.06.88.06-.04.13-.09.19-.13.26-.18.55-.39.93-.53,1.37-.51,3,.13,3.67,1.05.41.56.53,1.17.56,1.75,1.09-.55,2.32-.96,3.66-.79,1.27.17,2.4.88,3.02,1.91.52.88.63,1.83.72,2.67.4,3.63.58,7.15-1.42,10.23-.42.65-.61,1.27-.81,1.93-.25.81-.5,1.65-1.22,2.51-1.31,1.56-3.54,2.52-5.72,2.52ZM221.81,625.06c.09,0,.17.01.26.04.29.1.43.34.31.56-.29.56-.18,1.19.31,1.79.58.71,1.58,1.22,2.62,1.33,1.89.2,4.06-.65,5.26-2.07.62-.73.84-1.46,1.07-2.24.21-.68.42-1.37.9-2.12,1.88-2.89,1.69-6.28,1.31-9.79-.08-.77-.18-1.65-.62-2.39-.35-.58-1.09-1.26-2.12-1.39-1.27-.17-2.51.48-3.68,1.15-.19.11-.44.13-.65.05-.21-.08-.34-.24-.33-.41.03-.73.07-1.57-.41-2.21-.39-.53-1.34-.94-2.04-.68-.21.08-.42.22-.64.38-.35.25-.75.52-1.32.63-.31.06-.63-.07-.73-.29-.3-.67-.21-1.28-.14-1.8.1-.75.17-1.2-.75-1.66-1.28-.64-3.48-.22-4.31.57-.37.38-1.32,2.93-1.22,3.45.14.17.12.39-.07.54-.23.18-.62.19-.86.02,0,0,0,0,0,0-.18-.12-.37-.24-.56-.35h0c-1.03-.59-3.64-1.79-5.73-.26-.73.54-1.09,1.33-.98,2.18s.66,1.58,1.52,2.01c.21.1.3.29.25.46-.06.18-.25.31-.5.34-1.58.18-3.21.36-4.56.94-1.16.49-2.27,1.47-2.13,2.53.15,1.18,1.82,2.03,3.34,2.17,1.48.13,3.11-.2,5-1,.27-.12.62-.06.81.13.18.19.14.45-.11.59-1.43.87-2.19,2.29-1.94,3.63.01.07.05.25.13.32.1.08.41.11.54.12,1.75.16,3.56.02,5.22-.41.19-.05.41-.03.57.07.16.09.25.24.23.39-.17,1.42.57,2.78,1.88,3.44.72.37,1.75.5,2.66.35.76-.13,1.36-.43,1.69-.85.11-.14.32-.23.53-.23ZM214.88,607.98h0Z"/>
        </g>
        <g>
          <path class="cls-5" d="M272.93,544.72c-1.48-.89-3.86-1.34-5.34-.69-1.68.74-2.39,2.45-1.54,3.73-.22-1.84-4.01-2.42-5.97-1.24-1.95,1.18-2.35,3.24-2.26,5.08-2.07-.56-4.66.25-5.52,1.73-.86,1.48.14,3.39,2.14,4.07-2.21-.3-4.64.63-5.52,2.14-.88,1.5-.13,3.42,1.71,4.36-2.59-.58-5.47.93-6.15,2.83s.44,3.96,2.24,5.44c-2.38-.63-5.18.73-5.78,2.51s.65,3.71,2.61,4.87c-3.96,1.51-5.6,5.55-3.39,8.37-2.04.69-3.54,2.16-3.84,3.77-.3,1.62.61,3.32,2.32,4.38-2.15.41-3.78,1.97-3.74,3.58s1.75,3.13,3.92,3.48c-1.81.98-3.7,2.02-4.57,3.54-.86,1.51-.21,3.61,1.91,4.16.89.24-.3-.18.32.35-2.24.42-4.1,1.77-4.68,3.39s.14,3.46,1.82,4.61c-2.38.43-4.38,1.82-5.06,3.53-.68,1.71,0,3.66,1.7,4.94-2.69-.51-5.34,1.4-5.66,3.39-.32,2,1,3.93,2.46,5.65-2.64.93-5.32,2.12-6.57,4.04s-.28,4.71,2.53,5.3c-2.19.7-4.24,1.94-4.75,3.64-.5,1.7,1.21,3.73,3.6,3.69-2.57.59-4.02,2.97-2.9,4.75,1.13,1.78,4.56,2.53,6.86,1.5,1.01-.45-.14.71.88.26-.66,1.5,1,3.23,3.15,3.45,2.15.22,4.31-.98,4.8-2.51-.02,1.2,1.71,2.22,3.35,2.05,1.64-.17,2.88-1.41,2.72-2.61s-1.59-2.21-3.23-2.4c2.79-.82,4.73-2.97,4.63-5.15-.1-2.18-2.22-4.24-5.08-4.93,2.28-1.05,4.86-2.55,4.47-4.49-.11-.56-.48-1.07-.91-1.55-.79-.87-1.81-1.64-3-2.23-.62-.31,1.45.25,1.07-.22,2.26-.79,3.91-2.44,4.22-4.25.06-.34.07-.7-.17-1-.19-.25-.53-.42-.85-.58-1.11-.55-2.22-1.1-3.34-1.65,2.65-.5,5.01-1.77,6.43-3.48.24-.29.46-.62.42-.95-.04-.28-.26-.54-.49-.77-.86-.85-2-1.54-3.29-2.01.83-.29,1.79-.4,2.57-.76,1.42-.66,1.91-2.06,1.6-3.26s-1.24-2.27-2.16-3.3c-.53-.59.91-.68.27-1.2,2.83-.28,5.3-1.95,5.87-3.98.58-2.03-.78-4.27-3.23-5.34,1.07-.5,2.18-1.02,2.89-1.8,1.68-1.83.02-3.07-1.61-4.45-.1-.08-.2-.17-.2-.28,0-.1.09-.18.17-.26,1.51-1.41,4.15-2.65,3.13-4.6-.6-1.15-1.88-2.04-3.11-2.89,1.06.73,2.83-.37,3.59-.88,1.35-.93,1.97-2.69,1.55-3.98-.17-.51-1.22-2.92-2.2-2.8,1.89-.23,4.66-1.3,5.6-2.61.94-1.31,1.06-3.78-.13-4.96-.29-.29-1.96-1.41-2.36-1.3,2.81-.73,6.93-1.75,7.5-4.25.33-1.45-.75-3-2.54-3.68,1.77-.18,3.55-.52,5.04-1.23,1.49-.71,2.68-1.84,2.88-3.13.21-1.29-.73-2.69-2.39-3.17.66-.54,1.72-.69,2.6-1.03,2.62-1.02,3.71-5.86-.57-5.58,2-.13,4.48-1.02,5.58-2.27.49-.55.52-1.38-.17-1.8-.61-.37-1.72-.45-1.79-1.03,1.31-.14,2.68-.4,3.56-1.12,1.3-1.05.69-2.18-.62-2.97Z"/>
          <path class="cls-7" d="M230.37,663.81c-.19,0-.39,0-.58-.03-1.24-.12-2.41-.69-3.13-1.53-.52-.6-.75-1.26-.68-1.9,0,0,0,0,0,0-.11-.05-.18-.11-.23-.18-1.17.41-2.58.48-3.95.18-1.53-.34-2.76-1.08-3.37-2.04-.61-.96-.59-2.12.06-3.18.39-.64.98-1.19,1.69-1.59-.51-.19-.98-.46-1.39-.81-1-.87-1.42-2.07-1.11-3.13.42-1.4,1.83-2.65,3.96-3.53-.72-.35-1.32-.87-1.72-1.52-.78-1.24-.77-2.76.02-3.98,1.26-1.94,3.8-3.14,6.26-4.04-1.33-1.62-2.52-3.5-2.2-5.52.21-1.27,1.24-2.51,2.71-3.23.7-.35,1.46-.56,2.23-.61-1.19-1.33-1.56-3.03-.96-4.56.65-1.64,2.39-3,4.56-3.62-1.36-1.25-1.88-2.96-1.32-4.51.55-1.53,2.1-2.82,4.08-3.45-.67-.3-1.21-.76-1.56-1.34-.59-.97-.6-2.18-.03-3.17.79-1.38,2.37-2.39,3.86-3.22-1.88-.65-3.22-2.08-3.26-3.61-.04-1.58,1.3-3.08,3.24-3.76-1.4-1.15-2.1-2.75-1.82-4.26.3-1.6,1.7-3.09,3.62-3.9-.88-1.38-1.03-3.03-.39-4.62.62-1.53,1.9-2.82,3.58-3.64-1.87-1.36-2.74-3.26-2.19-4.9.36-1.06,1.41-2.02,2.81-2.57.7-.27,1.44-.42,2.17-.44-1.45-1.58-1.99-3.37-1.43-4.95.41-1.14,1.53-2.18,3-2.78.69-.28,1.41-.44,2.13-.49-1.11-1.14-1.42-2.7-.67-3.98.74-1.26,2.45-2.17,4.31-2.4-1.22-1.02-1.67-2.55-.93-3.81.87-1.49,3.28-2.39,5.46-2.13.03-2.23.86-3.86,2.49-4.85,1.23-.75,3.21-.93,4.8-.45.24.07.46.16.66.25.23-.95.98-1.83,2.12-2.33,1.82-.8,4.47-.22,6.04.73h0c.93.56,1.48,1.24,1.55,1.92.06.59-.24,1.17-.87,1.68-.77.62-1.81.93-2.81,1.11.03,0,.06.02.08.03.29.1.61.21.89.38.98.59.92,1.67.3,2.38-.83.95-2.29,1.65-3.76,2.07.43.27.76.64.95,1.1.68,1.66-.54,4.1-2.43,4.83-.31.12-.63.22-.95.31-.3.09-.59.18-.85.28,1.32.71,2.11,2,1.9,3.28-.21,1.32-1.39,2.61-3.15,3.45-1.07.51-2.32.87-3.86,1.12,1.26.89,1.92,2.22,1.63,3.5-.54,2.37-3.89,3.52-6.61,4.26.73.42,1.36.95,1.37.96,1.36,1.35,1.21,3.98.18,5.42-.83,1.15-2.89,2.13-4.77,2.6.9.91,1.42,2.48,1.42,2.5.48,1.5-.26,3.39-1.72,4.4-.92.63-1.69.98-2.33,1.14.81.62,1.56,1.32,2,2.16.92,1.76-.68,3-2.1,4.1-.4.31-.78.6-1.1.91l.22.19c1.54,1.29,3.29,2.76,1.43,4.78-.61.66-1.46,1.15-2.31,1.56,2.17,1.26,3.3,3.43,2.74,5.41-.58,2.04-2.92,3.75-5.7,4.23-.05.26-.31.46-.43.54-.03.02-.07.05-.1.08.92,1.03,1.92,2.16,2.25,3.46.32,1.27-.13,2.91-1.87,3.72-.48.22-.99.35-1.49.48.92.45,1.73,1.02,2.38,1.66.27.27.55.59.61.99.06.47-.22.88-.5,1.22-1.28,1.54-3.27,2.75-5.58,3.39l2.31,1.14c.34.17.77.38,1.04.72.33.43.3.9.24,1.27-.32,1.85-1.95,3.57-4.2,4.46-.03.05-.06.1-.08.12-.04.04-.09.08-.14.11.78.51,1.47,1.09,2.04,1.71.57.63.89,1.18,1,1.72.4,1.94-1.75,3.43-3.79,4.47,2.52.95,4.32,2.93,4.41,5,.09,2-1.42,3.99-3.72,5.09,1.26.5,2.18,1.42,2.32,2.44.19,1.44-1.32,2.89-3.24,3.09-.98.1-2.04-.14-2.85-.65-.27-.17-.51-.37-.69-.58-.94,1.03-2.56,1.72-4.21,1.72ZM226.88,659.46c.08.02.16.04.22.08.2.11.28.31.2.48-.24.55-.1,1.19.39,1.76.53.61,1.38,1.03,2.27,1.12,1.77.18,3.7-.84,4.13-2.17.07-.22.35-.37.67-.34.31.03.54.22.54.44,0,.42.28.85.79,1.17.54.34,1.24.5,1.87.44,1.28-.14,2.33-1.15,2.2-2.13-.13-.97-1.33-1.85-2.72-2.01-.27-.03-.48-.19-.51-.39-.03-.2.12-.39.38-.46,2.55-.75,4.34-2.74,4.25-4.73-.09-1.99-2.05-3.9-4.67-4.52-.22-.05-.38-.2-.41-.36s.08-.34.28-.43c1.97-.91,4.55-2.32,4.19-4.05-.08-.41-.34-.85-.82-1.37-.74-.82-1.72-1.55-2.84-2.11-.46-.23-.4-.48-.33-.61.2-.35.7-.3,1.06-.25.05,0,.12.01.2.02.06-.06.14-.1.23-.14,2.07-.72,3.59-2.25,3.88-3.91.04-.23.06-.52-.09-.72-.13-.16-.4-.3-.67-.43l-3.34-1.65c-.2-.1-.3-.27-.26-.44.04-.17.22-.31.45-.35,2.51-.47,4.72-1.67,6.06-3.28.18-.22.36-.47.33-.69-.02-.18-.2-.38-.37-.55-.8-.79-1.87-1.44-3.08-1.88-.21-.08-.34-.23-.34-.4,0-.17.13-.32.34-.39.39-.14.79-.23,1.17-.33.49-.12.95-.23,1.33-.41,1.26-.59,1.57-1.87,1.33-2.81-.29-1.14-1.24-2.2-2.08-3.14-.52-.59.04-1.01.25-1.17.01,0,.03-.02.04-.03-.09-.12-.12-.26-.05-.39.08-.15.25-.28.47-.3,2.58-.25,4.83-1.78,5.36-3.63.52-1.85-.71-3.9-2.95-4.87-.18-.08-.29-.22-.3-.37,0-.15.1-.3.28-.38.97-.45,2.06-.96,2.71-1.67,1.28-1.4.38-2.28-1.33-3.72l-.24-.2c-.11-.09-.34-.29-.34-.57,0-.25.19-.43.3-.52.36-.34.78-.67,1.19-.98,1.34-1.04,2.5-1.94,1.85-3.19-.56-1.08-1.84-1.96-2.96-2.73-.24-.17-.25-.45-.02-.62.23-.18.62-.18.86-.02.67.47,2.27-.56,2.75-.88,1.14-.78,1.76-2.38,1.38-3.55-.27-.82-1.11-2.29-1.56-2.46-.32.02-.6-.14-.65-.37,0-.02,0-.05,0-.07,0-.21.21-.4.51-.44,1.79-.22,4.35-1.24,5.16-2.37.83-1.16.96-3.46-.08-4.49-.25-.25-1.43-1-1.82-1.12-.27.01-.52-.1-.62-.29-.11-.23.05-.48.37-.56,0,0,0,0,0,0l.17-.04c2.72-.7,6.43-1.67,6.93-3.87.28-1.25-.67-2.63-2.22-3.21-.23-.09-.36-.28-.32-.47.04-.19.25-.34.51-.36,2.04-.21,3.57-.58,4.79-1.16,1.47-.7,2.44-1.75,2.61-2.81.19-1.16-.68-2.33-2.01-2.71-.18-.05-.32-.17-.37-.31-.05-.14,0-.29.14-.39.54-.44,1.25-.65,1.93-.86.3-.09.58-.17.84-.27,1.4-.54,2.36-2.53,1.84-3.8-.29-.71-.97-1.02-2.07-.95,0,0,0,0,0,0-.34.02-.63-.16-.66-.4-.03-.24.22-.46.55-.48,0,0,0,0,0,0,1.69-.11,4.06-.87,5.12-2.07.33-.38.39-.96-.05-1.22-.15-.09-.39-.17-.63-.26-.55-.19-1.3-.45-1.38-1.07-.03-.23.2-.44.52-.48,1.07-.11,2.39-.33,3.2-.98.41-.33.6-.68.56-1.03-.04-.44-.44-.9-1.11-1.31-1.24-.75-3.36-1.21-4.63-.65-1.13.49-1.74,1.55-1.57,2.5.18.25.29.53.32.82.03.21-.16.41-.45.46-.28.06-.58-.04-.71-.24-.16-.24-.27-.49-.34-.75-.31-.35-.8-.55-1.14-.65-1.18-.35-2.67-.22-3.56.31-1.47.89-2.16,2.48-2.05,4.73,0,.15-.09.29-.25.37-.17.09-.38.11-.57.06-1.75-.47-4.02.23-4.75,1.49-.73,1.25.15,2.92,1.84,3.5.28.1.41.32.32.54-.1.21-.4.34-.69.3-1.94-.27-4.07.56-4.84,1.88-.77,1.32-.12,3,1.5,3.83.24.13.33.36.19.56-.13.19-.44.29-.73.23-.93-.21-1.98-.11-2.96.29-1.19.48-2.09,1.32-2.42,2.23-.57,1.6.22,3.48,2.1,5.04.18.15.2.37.05.54s-.45.23-.71.17c-.86-.23-1.85-.15-2.78.21-1.1.43-1.92,1.17-2.2,2-.5,1.5.46,3.28,2.41,4.43.16.09.24.24.22.39-.02.15-.14.28-.32.35-1.74.66-3.1,1.91-3.71,3.43-.61,1.51-.41,3.1.57,4.34.08.11.1.24.05.35-.05.12-.17.21-.32.27-1.85.62-3.22,1.97-3.49,3.43-.27,1.46.56,3.03,2.11,3.98.17.11.25.27.2.43-.05.16-.22.29-.44.33-1.88.36-3.32,1.74-3.28,3.15.04,1.41,1.55,2.75,3.45,3.05.23.04.41.17.46.34.05.17-.04.34-.23.45-1.66.89-3.54,1.91-4.37,3.35-.44.77-.43,1.72.02,2.48.23.38.68.88,1.53,1.1.09.02.16.04.2.05.12.02.22.05.29.08.24.12.32.34.22.53.03.08.02.16-.01.24-.06.15-.22.26-.43.29-2.01.38-3.72,1.61-4.24,3.07-.52,1.46.14,3.14,1.65,4.18.16.11.23.28.17.43-.06.16-.23.28-.44.32-2.19.39-4,1.66-4.62,3.23-.62,1.57-.01,3.34,1.55,4.51.19.14.23.36.09.53-.14.17-.41.26-.68.2-1.13-.21-2.1.11-2.71.41-1.17.58-2.03,1.6-2.19,2.61-.31,1.92,1.03,3.79,2.37,5.36.09.11.11.24.07.36-.05.12-.16.22-.32.27-2.44.86-5.09,1.98-6.28,3.83-.63.97-.63,2.24-.01,3.24.33.52.97,1.2,2.16,1.45.25.05.42.21.44.39.02.19-.13.36-.36.43-1.13.36-3.83,1.41-4.4,3.33-.23.79.1,1.72.85,2.38.59.51,1.36.8,2.14.77.33-.02.57.15.62.37.05.22-.13.43-.42.49-1.06.24-1.96.86-2.46,1.69-.51.83-.53,1.72-.07,2.46.46.73,1.42,1.3,2.61,1.57,1.2.26,2.43.17,3.37-.25.18-.08.64-.29,1.06-.09.17.08.26.19.29.3ZM248.21,600.33h0s0,0,0,0ZM253.85,576.41h0ZM254.06,576.4h0s0,0,0,0c0,0,0,0,0,0h0Z"/>
        </g>
        <g>
          <path class="cls-5" d="M299.4,542.72c-.74-1.36-2.4-2.41-4.58-1.86-1.9.48-3.08,1.89-3.56,3.31.19-.54-.42-1.09-1.15-1.24s-1.52.03-2.18.3c-2.53,1.05-3.54,3.65-2.15,5.5-2.2.21-4.59.67-5.81,2.01s-.07,3.68,2.14,3.55c-2.76.18-5.59,1.3-6.56,3.18s.72,4.41,3.49,4.55c-1.99.16-3.68,1.48-3.77,2.94-.08,1.45,1.45,2.87,3.42,3.15-2.01.73-3.97,1.86-4.43,3.46-.46,1.59,1.43,3.52,3.62,3.16-2.09.3-3.73,1.76-3.74,3.3,0,1.87,2.35,2.52,3.48,3.93-.06-.08-2.67.91-2.93,1.06-1.14.65-1.64,1.82-1.16,2.85.24.52,2.03,2.62,3.04,1.93-1.14.77-2.23,1.68-2.53,2.79-.3,1.11.51,2.45,2.04,2.68-1.95-.3-3.33,2.11-3.18,3.13.23,1.58,1.8,3.07,3.83,3.66-.89-.26-3.05.9-3.48,1.39-1.27,1.46-.63,3.74,1.21,4.79-3.93,1.81-4.45,6.47-.98,8.72-2.1.56-3.89,1.9-4.18,3.51-.29,1.61,1.23,3.37,3.44,3.63-1.9.97-3.68,2.19-4.42,3.79-.74,1.6-.13,3.61,1.87,4.47-1.84,1.45-3.77,3.01-4.26,4.95s1.15,4.3,3.87,4.42c.43.49-1.09.18-.66.67-3.6,1.53-3.91,5.87-.54,7.66-1.92-.27-3.63,1.02-4.32,2.35-.6,1.16-.73,2.5,0,3.62.73,1.12,2.44,1.94,4.13,1.75-1.09.96-2.2,1.95-2.7,3.14s-.21,2.64,1.13,3.41c1.16.67,2.88.68,4.23.21,1.34-.46,2.36-1.32,3.13-2.24-1.41,1.69,1.89,4.49,4.05,4.93,3.1.62,5.37-2.82,7.03-4.46-.19,1.35.3,2.93,1.96,3.56,1.79.69,3.44-.6,3.79-1.81.02.81.06,1.66.6,2.37,1.86,2.42,5.4.04,6.66-1.24.15,1.5,2.11,2.72,4.18,2.81,2.07.09,4.08-.84,5.13-2.13,1.15,1.52,3.04,2.73,5.26,3.37,1.58.45,3.43.61,4.96.07,1.53-.54,2.57-1.9,1.97-3.06,1.71.63,3.84,1.02,5.51.33,1.68-.68,2.07-2.8.31-3.37,2.01-.45,4-1.37,4.67-2.81s-.63-3.36-2.73-3.39c.62-.52,1.56-.76,2.34-1.15.78-.39,1.43-1.11,1.04-1.74-.17-.28-.51-.48-.85-.65-1.99-1.05-4.32-1.76-6.74-2.06.89.05,1.66-.58,1.73-1.22s-.38-1.27-.97-1.76c-.96-.81-2.4-1.37-3.87-1.28s-2.86.96-2.92,2.03c.72-.93-.98-1.85-2.38-2.19-1.31-.32-2.68-.61-4.04-.45-1.36.15-2.69.89-2.83,1.88.61-.63.83-1.46.57-2.2-.24-.7-3.85-.65-4.54-.49-1.58.36-2.9,1.42-3.1,2.61,0-1.09-.96-2.14-2.35-2.55-1.38-.41-3.1-.16-4.15.61,1.32-1.09,2.54-2.33,2.89-3.75.35-1.43-.38-3.09-2.16-3.76,1.86-.62,2.91-2.26,2.49-3.72-.42-1.46-2.17-2.63-4.18-2.93,1.36-.69,2.74-1.39,3.78-2.33,1.04-.94,1.71-2.16,1.43-3.34-.29-1.18-1.72-2.25-3.38-2.23-.68-.59.18-.81-.87-.92,1.8-.65,3.42-1.83,3.56-3.29.15-1.46-1.76-2.98-3.71-2.61.18-1.23,2.53-1.59,3.39-2.65.76-.95.1-2.23-1.08-2.92-1.18-.69-2.72-.94-4.2-1.16,1.15-1.41,3.96-1.68,5.23-3.04,1.38-1.48-.2-3.85-2.65-3.99,1.39-.92,4.01-.92,4.52-2.23.3-.77-.42-1.59-1.38-1.98-.96-.39-2.11-.45-3.21-.5,2.17.07,4.31-.75,5.7-1.93,1.4-1.19,1.76-2.92.04-4.15-.11-.08-.26-.13-.4-.17-.97-.31-1.99-.54-3.03-.68,1.27-.57,2.71-1.44,3.65-2.28.85-.77,1.38-1.8,1.08-2.76-.3-.97-1.62-1.78-2.97-1.63.99-.87,2.65-1.25,3.61-2.14.91-.84,1.03-2.1.27-3.02-.76-.92-2.34-1.45-3.8-1.26,1.75-.68,3.2-1.96,3.16-3.4-.03-1.44-2-2.82-3.92-2.44,1.03-.26,2.09-.54,2.92-1.06,1.6-1.01,1.34-2.45-.12-3.44-.67-.46-1.42-.88-2.31-1.05,1.12.13,2.59-.76,3.52-1.14,1.14-.46,1.74-1.11,1.31-2.22-.37-.95-1.43-1.68-2.61-2.16,1.57-.37,2.75-1.49,2.84-2.69.01-.21,0-.44-.19-.61-.17-.16-.45-.23-.71-.29-.96-.24-1.93-.48-2.89-.71,1.06-.75,2.16-1.55,2.58-2.57s-.13-2.35-1.53-2.69c-.51-.12-1.18-.17-1.36-.54,1.41-.67,3.61-2.45,3.56-3.73-.04-.8-.11-1.56-1.15-2.01-.34-.15-2.4-.52-2.5.05.11-.64-.04-1.36-.39-2Z"/>
          <path class="cls-7" d="M315.66,668.54c-.95,0-1.97-.15-3-.44-2.04-.58-3.84-1.65-5.07-2.97-1.28,1.15-3.23,1.85-5.13,1.77-1.98-.08-3.75-1.04-4.45-2.29-1.09.85-2.78,1.82-4.4,1.76-.71-.03-1.72-.27-2.49-1.27-.25-.32-.4-.66-.5-1.01-.35.29-.76.53-1.2.68-.8.27-1.65.25-2.45-.05-1.35-.52-2.01-1.52-2.23-2.56-1.58,1.75-3.73,4.08-6.63,3.49-1.69-.34-3.7-1.78-4.49-3.21-.11-.2-.19-.4-.25-.59-.62.48-1.3.84-2.02,1.09-1.65.57-3.61.46-4.87-.27-1.64-.95-1.85-2.63-1.33-3.88.41-.98,1.2-1.83,2.03-2.59-1.42-.2-2.75-.93-3.43-1.98-.73-1.12-.74-2.57-.03-3.96.6-1.17,1.89-2.26,3.45-2.58-1.06-.94-1.61-2.2-1.51-3.57.12-1.65,1.16-3.09,2.81-3.92,0-.06.03-.11.05-.16.01-.02.02-.04.04-.05-.75-.21-1.43-.58-1.98-1.09-1.08-1-1.55-2.4-1.24-3.65.49-1.94,2.31-3.51,3.94-4.8-1.88-1.13-2.22-3.18-1.53-4.68.58-1.25,1.79-2.4,3.7-3.5-1.81-.66-3.03-2.26-2.75-3.84.27-1.49,1.7-2.85,3.73-3.6-1.35-1.14-2.03-2.75-1.84-4.41.19-1.71,1.27-3.24,2.92-4.21-1.64-1.31-2.03-3.53-.77-4.98.28-.32,1.27-.96,2.31-1.34-1.5-.81-2.55-2.08-2.75-3.43-.12-.85.57-2.34,1.76-3.12.13-.08.26-.16.4-.22-.89-.66-1.25-1.69-1.01-2.59.25-.92.96-1.69,1.77-2.34-1.09-.5-2.08-1.76-2.26-2.16-.56-1.19,0-2.57,1.36-3.34.02,0,1.35-.59,2.37-.92-.3-.27-.65-.53-1.02-.79-1-.72-2.14-1.54-2.14-2.93,0-1.23.92-2.4,2.29-3.11-.3-.12-.59-.28-.86-.47-1.09-.78-1.6-1.95-1.3-2.98.43-1.5,2.02-2.57,3.59-3.29-1.58-.64-2.67-1.93-2.59-3.25.07-1.19,1.09-2.31,2.5-2.91-.6-.27-1.14-.65-1.56-1.12-.96-1.08-1.2-2.46-.62-3.59.76-1.48,2.64-2.64,5.02-3.18-.2-.14-.38-.31-.53-.5-.8-.97-.8-2.26,0-3.14,1.24-1.37,3.54-1.88,5.43-2.12-1.01-2,.14-4.46,2.73-5.53.93-.39,1.85-.5,2.65-.34.35.07.68.21.96.39.76-1.21,1.97-2.1,3.4-2.46,2.54-.64,4.52.6,5.35,2.12h0c.25.46.4.95.45,1.42.85-.04,1.9.19,2.18.31,1.36.59,1.41,1.62,1.44,2.38.06,1.33-1.79,2.91-3.16,3.75.07.01.13.03.18.04.13.03.25.05.37.08,1.76.43,2.42,2.02,1.92,3.24-.37.91-1.21,1.64-2.04,2.26l1.96.48c.28.07.7.17.99.44.32.3.34.66.32.9-.08,1.1-.94,2.13-2.21,2.72.99.55,1.67,1.24,1.96,1.98.46,1.19-.08,2.11-1.6,2.72-.21.08-.44.19-.69.31-.42.2-.88.42-1.37.59.37.19.69.4.97.58.93.63,1.43,1.41,1.4,2.2-.02.72-.47,1.38-1.3,1.9-.33.21-.69.38-1.06.52.18.07.36.15.53.25,1.05.57,1.72,1.49,1.73,2.39.02,1.1-.73,2.21-2.01,3.05,1.05.21,1.99.71,2.56,1.4.89,1.08.76,2.53-.31,3.52-.55.51-1.28.86-1.98,1.19-.25.12-.5.24-.74.36,1.04.29,1.92.99,2.19,1.84.32,1.01-.12,2.16-1.2,3.14-.67.61-1.62,1.26-2.64,1.81.61.13,1.21.29,1.8.48.19.06.4.13.58.26,2.09,1.49,1.47,3.5,0,4.75-.84.71-1.89,1.27-3.02,1.63.12.04.24.08.36.13,1.14.46,2.08,1.46,1.67,2.49-.39,1-1.7,1.38-2.85,1.72-.27.08-.55.16-.82.25.78.3,1.44.8,1.86,1.44.66,1,.6,2.12-.16,2.93-.7.74-1.75,1.18-2.77,1.6-.69.29-1.36.56-1.87.91,1.2.2,2.46.49,3.49,1.1,1.34.79,2.17,2.31,1.22,3.48-.43.54-1.13.89-1.8,1.24-.47.24-.9.46-1.18.71.64.05,1.28.25,1.83.59,1.03.62,1.64,1.62,1.55,2.54-.15,1.45-1.55,2.59-3.04,3.3.04.08.06.18.06.29,0,.06,0,.1.02.15,1.74.11,3.31,1.19,3.64,2.58.29,1.2-.28,2.55-1.55,3.69-.84.76-1.86,1.35-2.91,1.9,1.72.56,3.06,1.69,3.43,2.99.41,1.45-.41,2.98-1.97,3.83,1.47.94,1.95,2.53,1.64,3.81-.23.91-.78,1.74-1.43,2.46.78-.08,1.58-.03,2.32.19.96.29,1.74.84,2.22,1.5.64-.73,1.64-1.31,2.81-1.57.63-.14,3.47-.24,4.67.25.35.14.56.33.64.56.04.12.07.24.09.37.47-.19.98-.32,1.48-.37,1.5-.17,2.96.14,4.33.47.8.19,1.8.58,2.41,1.13.64-.54,1.6-.93,2.65-.99,1.55-.09,3.19.44,4.38,1.43.56.47,1.22,1.22,1.11,2.09-.04.36-.26.73-.59,1.02,1.92.39,3.74,1.02,5.35,1.87.38.2.81.45,1.04.83.53.86-.28,1.79-1.25,2.28-.3.15-.61.28-.91.4-.15.06-.3.12-.44.18.52.19.98.48,1.35.87.8.83,1.04,1.96.61,2.87-.56,1.19-2.01,2.19-4.04,2.82.32.31.51.72.54,1.17.06.99-.67,1.99-1.76,2.43-1.35.55-3.11.55-5.03.02-.02,1.08-.97,2.19-2.49,2.72-.74.26-1.57.38-2.45.38ZM307.62,663.87h0c.22,0,.42.09.53.23,1.07,1.42,2.88,2.57,4.95,3.17.97.28,2.83.66,4.48.08,1.19-.41,2.17-1.54,1.66-2.5-.09-.17-.02-.36.16-.48.19-.12.46-.15.68-.07,1.13.42,3.28,1.02,4.94.34.7-.29,1.18-.97,1.14-1.63-.02-.27-.14-.75-.78-.96-.23-.08-.37-.25-.36-.43.02-.18.19-.34.43-.39,1.04-.23,3.53-.95,4.28-2.53.31-.66.13-1.47-.46-2.08-.26-.27-.82-.72-1.71-.73-.24,0-.45-.11-.54-.26-.1-.16-.06-.34.1-.47.47-.39,1.07-.63,1.64-.87.29-.12.56-.23.81-.36.58-.29,1.07-.82.83-1.2-.11-.18-.39-.34-.65-.48-1.91-1.01-4.16-1.7-6.49-1.98-.32-.04-.54-.25-.5-.49.04-.23.32-.41.65-.39.54.03,1.04-.42,1.08-.82.07-.59-.48-1.15-.82-1.43-.92-.77-2.21-1.2-3.36-1.13-.96.06-1.83.52-2.19,1.1.01.24-.07.48-.25.71-.14.18-.42.27-.7.21-.27-.06-.45-.24-.44-.44.01-.2.06-.39.14-.58,0-.02-.01-.03-.02-.05-.22-.41-1.1-.89-2.08-1.12-1.23-.3-2.54-.57-3.75-.44-.63.07-1.31.31-1.77.66-.13.37-.35.73-.66,1.04-.16.16-.45.23-.71.16-.26-.07-.42-.26-.39-.46.06-.44.29-.82.63-1.15.07-.3.06-.61-.05-.91-.35-.28-3.13-.32-3.77-.18-1.39.31-2.51,1.26-2.67,2.24-.04.23-.32.41-.64.39-.32-.01-.57-.21-.57-.44,0-.9-.82-1.8-1.97-2.14-1.14-.34-2.61-.13-3.48.51-.23.17-.61.18-.85.01-.24-.16-.26-.43-.04-.61,1.1-.91,2.4-2.13,2.75-3.54.29-1.18-.25-2.69-1.84-3.29-.21-.08-.33-.23-.33-.4,0-.17.14-.32.35-.39,1.57-.53,2.52-1.94,2.15-3.23-.36-1.25-1.88-2.32-3.7-2.59-.24-.04-.42-.17-.47-.34-.05-.17.05-.35.25-.45,1.31-.66,2.66-1.35,3.65-2.24,1.06-.95,1.53-2.04,1.3-2.99-.25-1.03-1.47-1.86-2.73-1.86-.02,0-.04,0-.05,0-.18,0-.35-.06-.47-.16-.36-.31-.42-.58-.44-.76-.02,0-.04,0-.06,0-.26-.03-.47-.18-.51-.37-.04-.19.09-.38.33-.46,1.47-.53,3.09-1.57,3.23-2.93.07-.64-.37-1.35-1.11-1.79-.33-.2-1.01-.51-1.83-.36-.19.04-.4,0-.55-.09-.15-.09-.23-.24-.21-.38.14-.9,1.13-1.42,2.02-1.87.59-.3,1.15-.59,1.45-.96.61-.75-.01-1.81-.93-2.35-1.09-.64-2.6-.87-3.94-1.07-.19-.03-.35-.12-.43-.25-.08-.13-.07-.28.03-.4.67-.83,1.8-1.29,2.88-1.73.94-.39,1.83-.75,2.37-1.33.52-.55.54-1.34.07-2.06-.47-.72-1.34-1.19-2.26-1.24-.24-.01-.45-.13-.53-.3-.08-.17-.01-.35.17-.47.63-.42,1.44-.65,2.21-.88,1.02-.3,1.9-.56,2.13-1.14.22-.56-.38-1.19-1.1-1.48-.86-.35-1.97-.4-2.95-.45-.33-.02-.59-.22-.57-.46.02-.24.32-.42.63-.42,1.86.05,3.85-.62,5.21-1.77,1.15-.97,1.61-2.45.07-3.54-.04-.03-.15-.06-.22-.09-.92-.3-1.9-.52-2.89-.65-.25-.03-.44-.17-.49-.35-.05-.18.06-.36.28-.46,1.31-.59,2.65-1.43,3.49-2.18.84-.76,1.19-1.65.96-2.39-.22-.71-1.22-1.41-2.28-1.29-.25.03-.5-.06-.62-.22s-.1-.36.06-.5c.55-.48,1.24-.81,1.91-1.13.65-.31,1.26-.6,1.69-1,.76-.7.85-1.76.22-2.52s-1.96-1.21-3.17-1.06c-.3.03-.58-.09-.68-.29-.1-.2.02-.43.29-.53,1.75-.68,2.87-1.86,2.84-3.01-.01-.62-.5-1.29-1.25-1.7-.61-.33-1.28-.45-1.9-.32-.31.06-.64-.07-.74-.29-.1-.23.07-.47.38-.55.97-.25,1.97-.51,2.72-.98.56-.35.87-.79.88-1.25.01-.54-.35-1.08-1.02-1.54-.56-.38-1.25-.79-2.05-.95-.31-.06-.51-.29-.44-.52.07-.23.38-.38.69-.35.63.07,1.64-.4,2.37-.75.28-.13.53-.25.76-.34,1.04-.42,1.33-.92,1.02-1.71-.38-.98-1.62-1.61-2.32-1.89-.21-.09-.33-.25-.31-.43.02-.17.19-.32.42-.38,1.33-.31,2.35-1.28,2.42-2.29.01-.21-.03-.28-.06-.31-.06-.06-.28-.11-.43-.15l-2.89-.71c-.2-.05-.35-.17-.4-.32-.05-.15.02-.31.17-.41.96-.67,2.04-1.44,2.42-2.38.33-.81-.06-1.89-1.14-2.15-.1-.02-.2-.04-.3-.06-.5-.1-1.19-.24-1.44-.75-.09-.19,0-.4.24-.51,1.34-.64,3.33-2.3,3.28-3.35-.04-.79-.11-1.33-.85-1.65-.26-.1-1.26-.25-1.61-.18-.09.19-.36.31-.65.29-.33-.03-.57-.25-.53-.49h0s0,0,0,0c.09-.56-.03-1.2-.35-1.78-.6-1.09-1.91-2.09-3.81-1.61-1.47.37-2.65,1.49-3.17,3,0,0,0,0,0,0,0,0,0,0,0,0,0,0,0,0,0,0-.08.24-.41.38-.74.32-.33-.06-.52-.3-.44-.53,0,0,0,0,0,0h0c.09-.26-.27-.61-.72-.71-.61-.12-1.27.07-1.72.26-2.24.93-3.15,3.26-1.91,4.9.1.13.1.28,0,.41-.09.13-.26.22-.46.24-1.76.17-4.23.55-5.38,1.82-.54.6-.52,1.52.04,2.21.22.27.72.71,1.54.66.33-.02.63.16.66.4.03.24-.22.46-.55.48,0,0,0,0,0,0h0c-2.34.15-5.12,1.11-6.03,2.9-.44.86-.25,1.96.5,2.8.62.69,1.49,1.1,2.46,1.15.31.02.56.2.57.43,0,.23-.23.42-.54.45-1.71.14-3.16,1.27-3.23,2.52-.07,1.25,1.24,2.46,2.93,2.7.25.04.45.19.48.37.03.19-.1.37-.33.45-1.63.59-3.67,1.62-4.11,3.16-.21.73.18,1.6.97,2.17.33.24,1,.61,1.88.48.02,0,.04,0,.06,0,.33-.05.65.1.72.34.07.24-.14.47-.46.52-.02,0-.04,0-.07.01-1.76.28-3.19,1.55-3.19,2.86,0,1.02.82,1.61,1.78,2.3.58.42,1.18.85,1.62,1.4h0s0,0,0,0c.17.21.07.48-.22.6-.08.04-.17.05-.26.06-.44.12-2.34.83-2.6.97-.95.54-1.34,1.51-.95,2.36.2.42,1.33,1.65,1.96,1.77.05.01.06,0,.09-.01.24-.17.63-.16.86.02.23.18.22.46-.03.62h0s0,0,0,0c-1.01.69-2.08,1.53-2.35,2.55-.23.87.39,1.98,1.57,2.16,0,0,0,0,0,0,.33.05.54.28.47.52-.07.24-.39.39-.72.34h0c-.37-.06-.72.03-1.08.27-.91.59-1.45,1.83-1.37,2.37.21,1.41,1.62,2.77,3.45,3.3.31.09.46.35.34.57-.12.23-.48.34-.79.25-.44-.13-2.34.76-2.74,1.21-1.08,1.23-.56,3.28,1.07,4.21.16.09.24.23.23.37-.01.14-.11.27-.28.35-1.68.78-2.8,2.22-2.98,3.86-.18,1.64.6,3.2,2.08,4.16.16.1.23.26.19.41-.04.15-.19.28-.39.33-2.02.54-3.54,1.81-3.78,3.15-.26,1.43,1.14,2.93,2.93,3.14.24.03.44.16.5.34.06.18-.04.36-.24.46-2.24,1.14-3.61,2.31-4.2,3.57-.62,1.34-.19,3.18,1.6,3.95.16.07.27.18.29.32.03.13-.03.27-.15.36-1.62,1.27-3.63,2.86-4.1,4.73-.25,1,.14,2.16,1,2.95.44.41,1.19.9,2.31.95.19,0,.37.08.48.2.23.26.19.47.12.6-.14.24-.45.33-.69.38,0,0,0,.02,0,.02-.04.12-.14.22-.28.28-1.51.64-2.48,1.91-2.59,3.38-.1,1.47.68,2.8,2.1,3.55.23.12.31.34.2.53-.11.19-.39.3-.67.26-1.55-.21-3.03.91-3.63,2.07-.6,1.17-.61,2.37-.01,3.28.66,1.01,2.16,1.65,3.49,1.5.25-.03.5.06.62.22.13.16.1.36-.06.5-1.04.92-2.12,1.86-2.58,2.99-.39.93-.27,2.25.92,2.94.9.52,2.35.59,3.59.16,1.06-.37,2.03-1.06,2.87-2.07.17-.21.55-.28.84-.15.29.13.38.4.21.61-.43.51-.23,1.15.01,1.59.71,1.29,2.51,2.45,3.68,2.68,2.1.42,3.91-1.6,5.37-3.22.35-.39.69-.76,1.01-1.08.16-.16.45-.22.71-.15.26.07.41.26.39.46-.15,1.09.18,2.57,1.64,3.12.45.17.92.19,1.37.03.71-.24,1.35-.88,1.55-1.54.07-.22.34-.37.65-.35.31.02.54.21.55.43.02.72.04,1.53.52,2.16.4.52.89.79,1.49.81,1.43.05,3.31-1.25,4.14-2.09.15-.15.41-.22.66-.17.25.05.42.21.44.39.13,1.23,1.78,2.33,3.61,2.4,1.74.07,3.59-.7,4.57-1.92.11-.14.31-.22.53-.22ZM277.12,582.2h0ZM277.12,582.2h0,0ZM277.12,582.2h0s0,0,0,0ZM277.12,582.19s0,0,0,0c0,0,0,0,0,0ZM277.11,582.19s0,0,0,0c0,0,0,0,0,0ZM277.11,582.19s0,0,0,0c0,0,0,0,0,0ZM277.11,582.19s0,0,0,0c0,0,0,0,0,0ZM277.11,582.19s0,0,0,0c0,0,0,0,0,0ZM277.11,582.19s0,0,0,0c0,0,0,0,0,0ZM277.11,582.18s0,0,0,0c0,0,0,0,0,0ZM277.11,582.18s0,0,0,0c0,0,0,0,0,0Z"/>
        </g>
        <path class="cls-7" d="M322.31,625.36c-.26,0-.5-.12-.58-.31-.05-.12-5.08-11.81-8.99-23.52-3.92-11.75-4.85-29.24-4.86-29.41-.01-.24.25-.45.59-.46.33,0,.62.18.63.43,0,.17.93,17.58,4.82,29.24,3.9,11.69,8.92,23.35,8.97,23.47.1.23-.08.48-.4.55-.06.01-.12.02-.18.02Z"/>
        <g>
          <path class="cls-5" d="M322.12,627.25c-1.86.04-3.25,1.56-2.86,2.88.43,1.47,2.3,2.06,3.98,2.49-1.24.3-2.3,1-2.61,1.94-.71,2.13,1.84,3.59,4.5,2.99-1.46,1.17-.35,3.42,1.81,3.65s4.11-1.69,3.18-3.12c0,0,2.45,2.94,4.8,2.32,1.6-.42,2.16-2.22,2.36-3.44.35,1.28,4.05,2.43,5.7,1.9,1.64-.53,2.27-2.24,1.21-3.29,1.34.35,2.71.7,4.13.69,1.42,0,2.92-.44,3.62-1.34.7-.9.24-2.25-1.1-2.59,2.03.23,4.16-.96,4.37-2.45s-1.53-2.96-3.58-3.04c1.32-1.03,1.99-2.58,1.26-3.88-.73-1.3-3.07-2.09-4.76-1.4,1.65-1.26.9-3.68-1.33-4.31s-5.04.78-5.01,2.52c-.51-1.27-2.62-2.08-4.35-1.66-1.74.42-2.77,1.97-2.13,3.22-.76-1.68-3.56-2.7-5.88-2.14-2.46.6-3.65,2.68-2.89,4.41-2.86-5.96-9.76.85-4.41,3.66Z"/>
          <path class="cls-7" d="M327.29,641.66c-.15,0-.29,0-.44-.02-1.22-.13-2.27-.8-2.75-1.76-.3-.59-.32-1.21-.1-1.75-1.09.02-2.12-.25-2.9-.79-1.05-.72-1.45-1.77-1.07-2.89.24-.72.85-1.35,1.71-1.78-1.48-.49-2.72-1.18-3.09-2.45-.24-.81.07-1.71.82-2.4.38-.35.86-.63,1.38-.8-1.47-1.18-1.54-2.7-1.04-3.84.61-1.4,2.09-2.39,3.6-2.41.59,0,1.51.14,2.39.9.38-1.33,1.64-2.48,3.42-2.91,1.25-.3,2.71-.21,3.99.26.54.2,1.02.45,1.43.74.07-.18.16-.37.28-.54.49-.73,1.33-1.29,2.31-1.53.98-.24,2.12-.15,3.11.22.45.17.86.4,1.18.66.32-.51.86-.97,1.56-1.32,1.22-.61,2.68-.77,3.92-.42,1.24.35,2.17,1.18,2.49,2.23.19.62.15,1.24-.11,1.79.47-.01.95.05,1.44.17,1.19.3,2.17.96,2.62,1.76.65,1.16.35,2.6-.73,3.76.76.18,1.46.53,2.01,1,.81.69,1.2,1.55,1.09,2.38-.12.83-.75,1.62-1.73,2.17-.52.29-1.1.5-1.7.61.11.12.2.26.28.41.34.66.27,1.44-.19,2.03-.74.96-2.33,1.55-4.14,1.56-1.06,0-2.09-.17-3.05-.4.1.39.07.81-.08,1.22-.29.8-1.01,1.43-1.96,1.74-1.24.4-3.05.03-4.21-.41-.55-.21-1.02-.44-1.39-.7-.38,1.17-1.1,2.3-2.48,2.67-1.64.43-3.23-.47-4.28-1.31-.12.35-.35.7-.67,1.01-.73.72-1.81,1.13-2.89,1.13ZM325.13,637.11c.2,0,.4.07.51.2.15.17.12.39-.06.53-.53.42-.65,1.09-.33,1.73.32.65,1,1.1,1.78,1.18.78.08,1.61-.21,2.17-.76.56-.55.71-1.21.37-1.73-.14-.21-.02-.47.26-.58.29-.11.64-.04.81.16.61.73,2.54,2.54,4.07,2.14.97-.25,1.68-1.38,1.96-3.08.04-.22.28-.38.58-.39,0,0,.02,0,.02,0,.29,0,.54.15.6.35.11.39.76.84,1.69,1.2,1.17.44,2.5.6,3.16.39.6-.19,1.08-.63,1.28-1.16.2-.53.08-1.08-.31-1.47-.16-.16-.16-.37,0-.52.16-.16.44-.22.69-.15,1.27.33,2.56.67,3.92.66,1.36,0,2.57-.45,3.09-1.12.29-.37.33-.86.11-1.28-.1-.19-.35-.54-.87-.67-.3-.08-.47-.3-.39-.52.08-.22.38-.36.68-.33.8.09,1.68-.09,2.4-.5.72-.4,1.18-.97,1.27-1.56.08-.59-.21-1.21-.8-1.72-.59-.5-1.4-.81-2.21-.84-.24,0-.44-.12-.53-.28-.09-.16-.04-.34.12-.47,1.27-.99,1.73-2.36,1.14-3.42-.31-.56-1.04-1.05-1.89-1.26-.72-.18-1.43-.15-2.01.08-.26.11-.59.06-.78-.11-.19-.17-.17-.42.04-.58.63-.49.87-1.23.64-1.99-.24-.76-.89-1.36-1.75-1.6-.86-.24-1.9-.12-2.78.32-.88.44-1.41,1.11-1.39,1.78,0,.22-.22.41-.52.44-.3.03-.59-.1-.67-.31-.2-.49-.71-.93-1.42-1.2-.7-.27-1.49-.33-2.16-.17-.67.16-1.26.55-1.6,1.07-.32.49-.39,1.03-.19,1.49.02.03.03.06.05.1.1.23-.06.47-.38.55-.31.08-.66-.04-.77-.26-.02-.03-.03-.07-.05-.1-.33-.65-1.06-1.22-2.01-1.57-.99-.36-2.11-.44-3.05-.21-2.06.5-3.2,2.26-2.5,3.85.1.23-.07.48-.39.55-.32.08-.66-.05-.77-.27-.64-1.34-1.53-2.07-2.51-2.07h-.02c-.97,0-2,.76-2.45,1.79-.22.51-.77,2.25,1.5,3.45.21.11.3.31.22.49-.08.18-.3.31-.56.31-.64.01-1.24.25-1.7.68-.52.48-.75,1.12-.59,1.67.37,1.25,2.04,1.77,3.59,2.16.25.06.41.23.41.42,0,.19-.17.36-.42.42-1.12.27-1.96.89-2.21,1.62-.27.8,0,1.54.72,2.04.77.52,1.89.68,3.01.43.06-.01.12-.02.18-.02Z"/>
        </g>
        <g>
          <path class="cls-25" d="M315.32,713.53s2.63-2.14,5.99-2.15c4.36-.02,7.46,2.43,7.44,4.94-.07,8.13-13.43,12.59-13.43,12.59,0,0-13.25-5.31-13.26-12.94,0-3.14,4.06-4.71,7.74-4.47,3.68.24,5.52,2.03,5.52,2.03Z"/>
          <path class="cls-7" d="M315.32,729.35c-.1,0-.2-.02-.29-.06-.55-.22-13.57-5.52-13.58-13.33,0-1.37.71-2.57,2.06-3.47,1.6-1.06,3.97-1.6,6.34-1.44,2.87.19,4.69,1.25,5.49,1.83.95-.64,3.2-1.94,5.96-1.95,2.26,0,4.35.6,5.89,1.71,1.39,1.01,2.18,2.35,2.17,3.67-.07,8.31-13.22,12.8-13.78,12.99-.08.03-.17.04-.25.04ZM309.04,711.92c-1.79,0-3.51.45-4.7,1.24-1.09.72-1.67,1.7-1.67,2.82.01,6.69,10.82,11.64,12.68,12.44,1.89-.69,12.74-4.98,12.8-12.09,0-1.09-.65-2.2-1.81-3.05-1.29-.94-3.06-1.46-4.98-1.46h-.04c-3.04.01-5.51,1.99-5.54,2.01-.12.1-.3.16-.48.15-.18,0-.35-.07-.46-.18-.03-.03-1.76-1.64-5.09-1.86-.24-.02-.47-.02-.71-.02Z"/>
        </g>
        <g>
          <path class="cls-25" d="M254.43,713.53s2.63-2.14,5.99-2.15c4.36-.02,7.46,2.43,7.44,4.94-.07,8.13-13.43,12.59-13.43,12.59,0,0-13.25-5.31-13.26-12.94,0-3.14,4.06-4.71,7.74-4.47s5.52,2.03,5.52,2.03Z"/>
          <path class="cls-7" d="M254.43,729.35c-.1,0-.2-.02-.29-.06-.55-.22-13.57-5.52-13.58-13.33,0-1.37.71-2.57,2.06-3.47,1.6-1.06,3.97-1.6,6.34-1.44,2.87.19,4.69,1.25,5.49,1.83.95-.64,3.2-1.94,5.96-1.95,2.25,0,4.35.6,5.89,1.71,1.39,1.01,2.18,2.35,2.17,3.67-.07,8.31-13.23,12.8-13.79,12.99-.08.03-.17.04-.25.04ZM248.15,711.92c-1.79,0-3.51.45-4.7,1.24-1.09.72-1.67,1.7-1.67,2.82.01,6.7,10.82,11.64,12.68,12.44,1.89-.69,12.74-4.98,12.8-12.09,0-1.09-.65-2.2-1.81-3.05-1.29-.94-3.06-1.46-4.98-1.46h-.04c-3.04.01-5.51,1.99-5.54,2.01-.12.1-.29.16-.48.15-.18,0-.35-.07-.46-.18h0s-1.74-1.64-5.09-1.86c-.24-.02-.47-.02-.71-.02Z"/>
        </g>
      </g>
      <g>
        <path class="cls-21" d="M330.51,160.01c2.92,7.02,5.51,12.38,8.94,16.85,30.2,39.27-27.53,77.36-46.45,23.85l-10.96-23.75c-3.91-2.94-6.87-4.57-9.6-6.39-11.01-7.35-20.92-16.47-29.24-26.88-3.14-3.93-6.23-8.75-5.25-13.53,1.15-5.62,7.32-8.17,13.17-8.19-1.03-5.05-1.9-9.7-2.75-14.44-8.1-10.67-16.09-21.43-23.96-32.27-2.11-2.9-4.26-5.92-5.06-9.41-.81-3.5.08-7.63,3.03-9.56,2.44-1.6,5.74-1.33,8.39-.05,2.65,1.28,4.79,3.45,6.82,5.61h0c.86.91,2.08,2.22,3.6,3.84-.02-1.27.07-2.53.34-3.77.76-3.5,3.33-6.86,6.81-7.35,2.89-.4,5.76,1.24,7.61,3.54,1.85,2.29,2.86,5.16,3.78,7.98h0c1.45,4.46,4.59,15.39,8.11,28.22,2.88,3.11,5.79,6.27,8.67,9.4-.45-3.32-.88-6.64-1.3-9.96-.48-3.79-.96-7.69-.04-11.4.92-3.71,3.56-7.25,7.3-8.08,3.4-.76,6.98.89,9.43,3.38,2.45,2.48,3.98,5.7,5.47,8.85-1.8-3,.54-7.26,3.92-8.18,3.38-.92,7.03.84,9.31,3.49.74.86,1.36,1.8,1.89,2.78,7.18,13.22,20.47,69.83,18,75.43h0Z"/>
        <path class="cls-7" d="M272.98,90.62c-.08-.46.22-.9.69-.99.46-.08.9.22.99.69.7,3.95,1.57,7.87,2.59,11.74,1.03,3.88,2.21,7.72,3.54,11.5.35.98.73,1.99,1.25,2.87.48.82,1.08,1.53,1.88,1.98.87.49,1.89.6,2.9.42,1.14-.2,2.25-.77,3.12-1.56.86-.79,1.52-1.74,2.06-2.79.56-1.08.99-2.25,1.37-3.42,1.25-3.88,2.04-7.91,2.34-11.98l-.83-13.79c-.05-.44.24-.85.68-.94.46-.09.91.21,1,.67.87,4.4,1.17,8.9.9,13.38-.01.23-.03.46-.05.69l.78,12.91c.07,1.23.15,2.47.33,3.69.18,1.18.45,2.33.92,3.4.48,1.09,1.21,2.11,2.12,2.87.79.66,1.72,1.11,2.73,1.22,1.6.17,3.03-.5,4.24-1.6,1.6-1.46,2.82-3.68,3.56-5.78,1.51-4.27,2.31-8.79,2.39-13.33.08-4.54-.57-9.09-1.94-13.4-.14-.45.1-.92.55-1.07.45-.14.92.1,1.07.55,1.43,4.5,2.1,9.23,2.02,13.95-.08,4.71-.91,9.42-2.49,13.87-.83,2.33-2.2,4.81-4.02,6.48-1.54,1.41-3.41,2.26-5.56,2.03-1.36-.15-2.59-.74-3.63-1.6-1.11-.93-2.01-2.17-2.59-3.49-.54-1.23-.85-2.52-1.04-3.82-.19-1.27-.27-2.56-.35-3.84l-.3-4.93c-.34,1.48-.75,2.95-1.21,4.4-.4,1.25-.87,2.5-1.48,3.68-.63,1.21-1.41,2.33-2.42,3.26-1.09,1-2.51,1.72-3.96,1.98-1.38.25-2.8.09-4.04-.61-1.09-.62-1.89-1.54-2.51-2.6-.59-1-1.01-2.1-1.39-3.17-1.35-3.83-2.55-7.71-3.58-11.62-1.04-3.92-1.91-7.89-2.62-11.88h0Z"/>
        <path class="cls-7" d="M272.32,120.52c.08.46-.22.9-.69.98-.46.08-.9-.22-.98-.69l-6.74-38.26c-.08-.46.22-.9.69-.98.46-.08.9.22.98.69l6.74,38.26h0Z"/>
        <path class="cls-7" d="M250.46,111.32c.15.44-.09.92-.53,1.07-.44.15-.92-.09-1.07-.53-2.83-8.52-4.85-17.31-6.03-26.19-1.18-8.89-1.52-17.9-1-26.86.03-.47.43-.83.9-.8.47.03.83.43.8.9-.51,8.85-.17,17.75.99,26.54,1.17,8.8,3.15,17.48,5.95,25.88h0Z"/>
        <path class="cls-7" d="M266.77,153.88c-.3-.36-.26-.89.1-1.19.36-.3.89-.26,1.19.1,2.43,2.85,5.28,5.35,8.43,7.4,3.14,2.05,6.58,3.64,10.18,4.71,1.35.4,2.79.71,4.16.72,1.31.01,2.58-.24,3.64-.95.9-.6,1.55-1.49,1.98-2.5.48-1.14.65-2.43.55-3.67-.1-1.22-.44-2.41-.91-3.55-.47-1.16-1.09-2.31-1.75-3.42-4.05-6.88-9.62-12.84-16.13-17.46-6.51-4.63-13.97-7.92-21.79-9.48-2.9-.58-6.09-.83-8.95-.27-2.23.44-4.25,1.37-5.77,3.05-.32.35-.85.37-1.2.06-.35-.32-.37-.85-.06-1.2,1.78-1.98,4.13-3.08,6.7-3.58,3.1-.61,6.51-.34,9.61.28,8.07,1.61,15.75,5,22.45,9.76,6.7,4.76,12.44,10.89,16.61,17.98.68,1.16,1.33,2.36,1.85,3.64.53,1.29.91,2.64,1.03,4.04.13,1.5-.09,3.08-.67,4.47-.54,1.31-1.41,2.46-2.6,3.26-1.38.92-2.97,1.26-4.59,1.24-1.57-.02-3.16-.35-4.63-.79-3.75-1.11-7.34-2.78-10.62-4.91-3.28-2.13-6.25-4.74-8.79-7.72h0Z"/>
        <path class="cls-26" d="M273.65,30.93c.31-1.63,1.51-1.98,2.68-.47,1.18,1.51,2.34,4.87,4.84,6.89,2.51,2.02,6.36,2.69,8.4,3.52,2.03.83,2.25,1.82,1.64,2.96s-2.06,2.41-3.14,4.21c-1.09,1.8-1.82,4.11-1.99,6.97-.17,2.85.22,6.25-.12,8.01-.34,1.76-1.42,1.88-2.65.55-1.23-1.33-2.62-4.12-4.65-6.4-2.04-2.29-4.73-4.07-6.91-5.2-2.19-1.13-3.87-1.62-3.87-2.6,0-.98,1.71-2.46,3.1-4.37,1.39-1.91,2.46-4.24,2.7-6.87.25-2.63-.33-5.55-.02-7.18h0Z"/>
        <path class="cls-26" d="M255.17,215.87c1.22,3.26,3.69,6.19,7.15,5.88,3.46-.31,7.92-3.84,8.38-7.84.46-4-3.08-8.45-6.52-9.95-3.45-1.5-6.81-.04-8.5,2.5-1.69,2.53-1.72,6.14-.5,9.41h0Z"/>
      </g>
      <g>
        <path class="cls-23" d="M85.03,558.87l-2.46,6.89c-.66,1.85-1.6,3.4-2.83,4.68-1.23,1.27-2.86,2.15-4.91,2.65-2.05.5-4.58.54-7.61.13-3.03-.41-6.67-1.38-10.93-2.9s-7.71-3.08-10.34-4.68c-2.63-1.6-4.58-3.25-5.85-4.93-1.27-1.68-1.98-3.4-2.12-5.16-.15-1.76.11-3.56.77-5.41l2.46-6.89c1.18-3.31,2.81-5.61,4.9-6.9,2.08-1.28,4.27-1.76,6.55-1.43-1.33-1.22-2.06-2.6-2.2-4.15-.14-1.54.11-3.22.75-5.02l1.47-4.12c.62-1.75,1.49-3.2,2.59-4.36,1.1-1.15,2.54-1.96,4.31-2.43,1.77-.46,3.95-.53,6.55-.19,2.6.34,5.68,1.14,9.23,2.41s6.43,2.59,8.63,3.96c2.2,1.37,3.83,2.79,4.88,4.26,1.05,1.47,1.63,2.99,1.73,4.58.1,1.58-.16,3.25-.78,5l-1.47,4.12c-.64,1.8-1.51,3.25-2.59,4.36-1.09,1.11-2.53,1.71-4.33,1.82,1.98,1.19,3.37,2.94,4.17,5.25.8,2.31.61,5.13-.57,8.44ZM55.42,553.04c-.27.76-.09,1.53.54,2.31.63.78,2.22,1.63,4.78,2.54s4.31,1.26,5.27,1.04c.96-.22,1.57-.71,1.84-1.46l1.34-3.76c.25-.71.08-1.45-.53-2.23-.6-.78-2.18-1.62-4.74-2.53s-4.33-1.26-5.31-1.05c-.98.21-1.6.67-1.85,1.38l-1.34,3.76ZM64.36,533.57c-.27.76-.25,1.47.07,2.15s1.47,1.37,3.46,2.07,3.37.92,3.99.58c.63-.34,1.08-.88,1.35-1.64l1.11-3.12c.25-.71.24-1.39-.03-2.05-.27-.66-1.43-1.35-3.46-2.07s-3.32-.9-3.99-.58c-.67.32-1.14.83-1.39,1.55l-1.11,3.12Z"/>
        <path class="cls-23" d="M134.18,581.75c-.78,2.18-1.79,4.04-3.04,5.6-1.25,1.56-2.9,2.68-4.96,3.36-2.06.68-4.62.87-7.69.58-3.07-.29-6.78-1.22-11.14-2.77-4.36-1.55-7.82-3.19-10.38-4.9-2.56-1.71-4.43-3.49-5.59-5.31-1.16-1.83-1.75-3.74-1.75-5.75,0-2,.38-4.09,1.15-6.27l8.63-24.22c.78-2.18,1.8-4.04,3.07-5.59,1.27-1.55,2.94-2.67,5.01-3.38,2.06-.7,4.63-.91,7.7-.62,3.07.29,6.78,1.22,11.14,2.77s7.82,3.19,10.38,4.9c2.56,1.71,4.42,3.5,5.58,5.35,1.15,1.85,1.72,3.78,1.71,5.77-.02,1.99-.41,4.08-1.19,6.26l-8.63,24.22ZM107.75,569.45c-.34.95-.28,1.86.18,2.75.46.88,1.9,1.76,4.31,2.62s4.08,1.09,4.99.7c.91-.39,1.54-1.06,1.88-2.01l6.81-19.1c.32-.9.25-1.79-.21-2.67-.46-.88-1.9-1.76-4.31-2.62s-4.08-1.09-4.99-.7c-.91.39-1.53,1.04-1.85,1.94l-6.81,19.1Z"/>
        <path class="cls-23" d="M155.11,576.72l-5.47-1.95c-.9-.32-1.48-.75-1.74-1.3-.26-.55-.23-1.27.09-2.17l1.01-2.84c.32-.9.75-1.48,1.3-1.74.54-.26,1.27-.23,2.17.09l4.9,1.75c.61.22,1.15.21,1.61-.03.46-.24.8-.66,1.02-1.28l.38-1.07-7.74-2.76c-.9-.32-1.48-.75-1.74-1.3-.26-.55-.23-1.27.09-2.17l3.75-10.51c.32-.9.75-1.48,1.3-1.74.54-.26,1.27-.23,2.17.09l14.35,5.11c.9.32,1.48.75,1.74,1.3.26.55.23,1.27-.09,2.17l-4.76,13.35c-1.28,3.6-3.2,5.94-5.75,7.04-2.55,1.09-5.41,1.07-8.58-.06Z"/>
        <path class="cls-23" d="M188.7,616.31l-22.44-8c-.9-.32-1.48-.75-1.74-1.3-.26-.55-.23-1.27.09-2.17l2.96-8.31c.32-.9.75-1.48,1.3-1.74.54-.26,1.27-.23,2.17.09l19.1,6.81c.61.22,1.15.18,1.6-.11.45-.29.78-.72.98-1.29.29-.8.34-1.45.17-1.94-.17-.49-.56-.87-1.16-1.13l-10.12-5.29c-3.15-1.65-5.42-3.69-6.82-6.11-1.41-2.42-1.4-5.62.02-9.6l2.66-7.46c1.43-4.02,3.84-6.65,7.21-7.88,3.37-1.23,7.35-1.02,11.95.62l19.88,7.09c.9.32,1.48.75,1.74,1.3.26.55.23,1.27-.09,2.17l-3.01,8.45c-.32.9-.75,1.48-1.3,1.74-.55.26-1.27.23-2.17-.09l-16.55-5.9c-.62-.22-1.16-.19-1.64.1-.48.28-.82.73-1.04,1.35s-.24,1.2-.06,1.74c.18.54.57.95,1.17,1.22l10.08,5.19c3.14,1.65,5.43,3.7,6.86,6.13,1.43,2.43,1.43,5.63.02,9.61l-2.66,7.46c-1.43,4.02-3.85,6.65-7.24,7.86-3.4,1.22-7.37,1.02-11.91-.6Z"/>
      </g>
      <g>
        <path class="cls-29" d="M82.47,296.57H21.2c-2.95,0-5.51,1.71-6.73,4.19-.48.98-.75,2.08-.76,3.24v102.19c0,.11,0,.22,0,.32.23,9.1,7.68,16.41,16.84,16.41h42.67c.11,0,.22,0,.32,0,5.64-.14,10.59-3.05,13.54-7.42,1.81-2.69,2.87-5.92,2.87-9.41v-102.03c0-4.13-3.34-7.48-7.48-7.48Z"/>
        <path class="cls-8" d="M77.19,296.57H15.92c-2.95,0-5.51,1.71-6.73,4.19-.48.98-.75,2.08-.76,3.24v102.19c0,.11,0,.22,0,.32.23,9.1,7.68,16.41,16.84,16.41h42.67c.11,0,.22,0,.32,0,5.64-.14,10.59-3.05,13.54-7.42,1.81-2.69,2.87-5.92,2.87-9.41v-102.03c0-4.13-3.34-7.48-7.48-7.48Z"/>
        <rect class="cls-15" x="15.62" y="308.91" width="61.86" height="57.22" rx="1.95" ry="1.95"/>
        <path class="cls-23" d="M74.02,310.43h-18.43s-36.52,0-36.52,0c-1.07,0-1.94.87-1.94,1.94v50.3c0,1.07.86,1.94,1.94,1.94h36.52s18.43,0,18.43,0c1.07,0,1.94-.87,1.94-1.94v-50.3c0-1.07-.86-1.94-1.93-1.94Z"/>
        <rect class="cls-23" x="31.46" y="302.54" width="30.19" height="2.56" rx=".97" ry=".97"/>
        <path class="cls-23" d="M43.72,376.71c-1.4,0-2.53,1.13-2.53,2.53,0,1.4,1.13,2.53,2.53,2.53,1.4,0,2.53-1.13,2.53-2.53,0-1.4-1.13-2.53-2.53-2.53Z"/>
        <path class="cls-23" d="M54.35,376.72c-1.4,0-2.53,1.13-2.53,2.53,0,1.4,1.13,2.53,2.53,2.53,1.4,0,2.53-1.13,2.53-2.53,0-1.4-1.13-2.53-2.53-2.53Z"/>
        <circle class="cls-15" cx="74.13" cy="386.26" r="6.62" transform="translate(-318.72 367.35) rotate(-76.38)"/>
        <path class="cls-16" d="M74.13,390.66c-2.43,0-4.4-1.97-4.4-4.4,0-2.43,1.97-4.4,4.4-4.4,2.42,0,4.4,1.97,4.4,4.4,0,2.43-1.97,4.4-4.4,4.4Z"/>
        <path class="cls-15" d="M63.25,396.79c-2.8,0-5.07,2.27-5.07,5.06s2.27,5.07,5.06,5.07c2.8,0,5.07-2.27,5.07-5.06s-2.27-5.07-5.06-5.07Z"/>
        <path class="cls-24" d="M63.25,404.7c-1.57,0-2.84-1.28-2.84-2.84,0-1.57,1.28-2.84,2.84-2.84,1.57,0,2.84,1.28,2.84,2.84,0,1.57-1.28,2.84-2.84,2.84Z"/>
        <path class="cls-23" d="M25.8,374.27c-6.62,0-11.99,5.37-11.99,11.99,0,6.62,5.37,11.99,11.99,11.99,6.62,0,11.99-5.37,11.99-11.99,0-6.62-5.37-11.99-11.99-11.99Z"/>
        <path class="cls-14" d="M34.84,384.35h-5.22c-1.06,0-1.91-.86-1.91-1.91v-5.22c0-1.06-.86-1.91-1.91-1.91-1.06,0-1.91.86-1.91,1.91v5.22c0,1.06-.86,1.91-1.91,1.91h-5.22c-1.06,0-1.91.86-1.91,1.91,0,1.06.86,1.91,1.91,1.91h5.22c1.06,0,1.91.86,1.91,1.91v5.22c0,1.06.86,1.91,1.91,1.91s1.91-.86,1.91-1.91v-5.22c0-1.06.86-1.91,1.91-1.91h5.22c1.06,0,1.91-.86,1.91-1.91,0-1.06-.86-1.91-1.91-1.91Z"/>
      </g>
      <g>
        <path class="cls-2" d="M159.59,244.37c-2.25.79-4.52,1.56-6.78,2.31-.03.02-.08.02-.12.03,3.39,5.51,6.81,11,10.23,16.49,2.25-.99,4.46-2.04,6.67-3-3.4-5.23-6.74-10.51-10-15.83ZM159.59,244.37c-2.25.79-4.52,1.56-6.78,2.31-.03.02-.08.02-.12.03,3.39,5.51,6.81,11,10.23,16.49,2.25-.99,4.46-2.04,6.67-3-3.4-5.23-6.74-10.51-10-15.83ZM159.59,244.37c-2.25.79-4.52,1.56-6.78,2.31-.03.02-.08.02-.12.03,3.39,5.51,6.81,11,10.23,16.49,2.25-.99,4.46-2.04,6.67-3-3.4-5.23-6.74-10.51-10-15.83ZM159.59,244.37c-2.25.79-4.52,1.56-6.78,2.31-.03.02-.08.02-.12.03,3.39,5.51,6.81,11,10.23,16.49,2.25-.99,4.46-2.04,6.67-3-3.4-5.23-6.74-10.51-10-15.83ZM159.59,244.37c-2.25.79-4.52,1.56-6.78,2.31-.03.02-.08.02-.12.03,3.39,5.51,6.81,11,10.23,16.49,2.25-.99,4.46-2.04,6.67-3-3.4-5.23-6.74-10.51-10-15.83ZM159.59,244.37c-2.25.79-4.52,1.56-6.78,2.31-.03.02-.08.02-.12.03,3.39,5.51,6.81,11,10.23,16.49,2.25-.99,4.46-2.04,6.67-3-3.4-5.23-6.74-10.51-10-15.83ZM159.59,244.37c-2.25.79-4.52,1.56-6.78,2.31-.03.02-.08.02-.12.03,3.39,5.51,6.81,11,10.23,16.49,2.25-.99,4.46-2.04,6.67-3-3.4-5.23-6.74-10.51-10-15.83ZM159.59,244.37c-2.25.79-4.52,1.56-6.78,2.31-.03.02-.08.02-.12.03,3.39,5.51,6.81,11,10.23,16.49,2.25-.99,4.46-2.04,6.67-3-3.4-5.23-6.74-10.51-10-15.83ZM159.59,244.37c-2.25.79-4.52,1.56-6.78,2.31-.03.02-.08.02-.12.03,3.39,5.51,6.81,11,10.23,16.49,2.25-.99,4.46-2.04,6.67-3-3.4-5.23-6.74-10.51-10-15.83ZM159.59,244.37c-2.25.79-4.52,1.56-6.78,2.31-.03.02-.08.02-.12.03,3.39,5.51,6.81,11,10.23,16.49,2.25-.99,4.46-2.04,6.67-3-3.4-5.23-6.74-10.51-10-15.83ZM159.59,244.37c-2.25.79-4.52,1.56-6.78,2.31-.03.02-.08.02-.12.03,3.39,5.51,6.81,11,10.23,16.49,2.25-.99,4.46-2.04,6.67-3-3.4-5.23-6.74-10.51-10-15.83ZM159.59,244.37c-2.25.79-4.52,1.56-6.78,2.31-.03.02-.08.02-.12.03,3.39,5.51,6.81,11,10.23,16.49,2.25-.99,4.46-2.04,6.67-3-3.4-5.23-6.74-10.51-10-15.83ZM159.59,244.37c-2.25.79-4.52,1.56-6.78,2.31-.03.02-.08.02-.12.03,3.39,5.51,6.81,11,10.23,16.49,2.25-.99,4.46-2.04,6.67-3-3.4-5.23-6.74-10.51-10-15.83ZM159.59,244.37c-2.25.79-4.52,1.56-6.78,2.31-.03.02-.08.02-.12.03,3.39,5.51,6.81,11,10.23,16.49,2.25-.99,4.46-2.04,6.67-3-3.4-5.23-6.74-10.51-10-15.83ZM159.59,244.37c-2.25.79-4.52,1.56-6.78,2.31-.03.02-.08.02-.12.03,3.39,5.51,6.81,11,10.23,16.49,2.25-.99,4.46-2.04,6.67-3-3.4-5.23-6.74-10.51-10-15.83ZM159.59,244.37c-2.25.79-4.52,1.56-6.78,2.31-.03.02-.08.02-.12.03,3.39,5.51,6.81,11,10.23,16.49,2.25-.99,4.46-2.04,6.67-3-3.4-5.23-6.74-10.51-10-15.83ZM159.59,244.37c-2.25.79-4.52,1.56-6.78,2.31-.03.02-.08.02-.12.03,3.39,5.51,6.81,11,10.23,16.49,2.25-.99,4.46-2.04,6.67-3-3.4-5.23-6.74-10.51-10-15.83ZM159.59,244.37c-2.25.79-4.52,1.56-6.78,2.31-.03.02-.08.02-.12.03,3.39,5.51,6.81,11,10.23,16.49,2.25-.99,4.46-2.04,6.67-3-3.4-5.23-6.74-10.51-10-15.83ZM159.59,244.37c-2.25.79-4.52,1.56-6.78,2.31-.03.02-.08.02-.12.03,3.39,5.51,6.81,11,10.23,16.49,2.25-.99,4.46-2.04,6.67-3-3.4-5.23-6.74-10.51-10-15.83ZM159.59,244.37c-2.25.79-4.52,1.56-6.78,2.31-.03.02-.08.02-.12.03,3.39,5.51,6.81,11,10.23,16.49,2.25-.99,4.46-2.04,6.67-3-3.4-5.23-6.74-10.51-10-15.83ZM159.59,244.37c-2.25.79-4.52,1.56-6.78,2.31-.03.02-.08.02-.12.03,3.39,5.51,6.81,11,10.23,16.49,2.25-.99,4.46-2.04,6.67-3-3.4-5.23-6.74-10.51-10-15.83ZM159.59,244.37c-2.25.79-4.52,1.56-6.78,2.31-.03.02-.08.02-.12.03,3.39,5.51,6.81,11,10.23,16.49,2.25-.99,4.46-2.04,6.67-3-3.4-5.23-6.74-10.51-10-15.83ZM159.59,244.37c-2.25.79-4.52,1.56-6.78,2.31-.03.02-.08.02-.12.03,3.39,5.51,6.81,11,10.23,16.49,2.25-.99,4.46-2.04,6.67-3-3.4-5.23-6.74-10.51-10-15.83ZM159.59,244.37c-2.25.79-4.52,1.56-6.78,2.31-.03.02-.08.02-.12.03,3.39,5.51,6.81,11,10.23,16.49,2.25-.99,4.46-2.04,6.67-3-3.4-5.23-6.74-10.51-10-15.83ZM159.59,244.37c-2.25.79-4.52,1.56-6.78,2.31-.03.02-.08.02-.12.03,3.39,5.51,6.81,11,10.23,16.49,2.25-.99,4.46-2.04,6.67-3-3.4-5.23-6.74-10.51-10-15.83ZM159.59,244.37c-2.25.79-4.52,1.56-6.78,2.31-.03.02-.08.02-.12.03,3.39,5.51,6.81,11,10.23,16.49,2.25-.99,4.46-2.04,6.67-3-3.4-5.23-6.74-10.51-10-15.83ZM159.59,244.37c-2.25.79-4.52,1.56-6.78,2.31-.03.02-.08.02-.12.03,3.39,5.51,6.81,11,10.23,16.49,2.25-.99,4.46-2.04,6.67-3-3.4-5.23-6.74-10.51-10-15.83ZM159.59,244.37c-2.25.79-4.52,1.56-6.78,2.31-.03.02-.08.02-.12.03,3.39,5.51,6.81,11,10.23,16.49,2.25-.99,4.46-2.04,6.67-3-3.4-5.23-6.74-10.51-10-15.83ZM243.69,246.11c.03-5.89-.93-11.97-2.36-18-4.49-18.96-15.54-32.5-33.96-39.44-2.61-.99-5.2-1.78-7.74-2.4-6.32-1.51-12.41-1.87-18.3-1.11t-.01,0c-3.31.43-6.55,1.2-9.73,2.33-4.31,1.51-8.5,3.68-12.55,6.46-2.4,1.62-4.74,3.47-7.04,5.52-.9.78-1.78,1.64-2.46,2.6-.68.93-1.15,1.97-1.26,3.13-.34,3.29-2.07,5.75-3.72,8.34-.56.88-1.09,1.77-1.58,2.68-1.03,1.9-1.94,3.88-2.82,5.86-.33.74-.65,1.48-.95,2.23h0c-2.52,6.07-4.41,12.24-5.33,18.61h0c-.62,4.14-.81,8.33-.52,12.62,1.1,16.34,8.3,29.12,22.78,37.34,3.78,2.16,7.69,3.89,11.72,5.18,5.87,1.91,12.01,2.93,18.36,3.03.61.02,1.22,0,1.83,0,2.98-.04,6.04-.33,9.11-.87,4.9-.86,9.83-2.35,14.56-4.53,2.95-1.35,5.8-2.95,8.51-4.84,4.12-2.83,7.93-6.29,11.24-10.41,3.4-4.23,6.25-9.15,8.34-14.81h0c.93-2.52,1.71-5.16,2.33-7.97,1.06-3.71,1.52-7.58,1.54-11.54ZM169.8,209.47c.49-1.19,1.42-1.91,2.47-2.57,2.81-1.78,5.79-2.91,8.88-3.5,2.34-.46,4.76-.61,7.24-.51,2.58.1,2.7.3,1.93,2.73-.87,2.71-1.74,5.4-2.61,8.11-1.48,4.54-2.95,9.08-4.41,13.62-.51,1.61-1.01,3.24-1.46,4.87-.25.81-.46,1.61-.69,2.42-.34,1.26-.87,2.14-2.2,2.62-1.91.7-3.81,1.41-5.73,2.11-4.53,1.69-9.07,3.39-13.64,5-2.25.79-4.52,1.56-6.78,2.31-.03.02-.08.02-.12.03-.17.02-.41-.03-.77-.03-.18-.55-.24-1.09-.22-1.6.03-.97.31-1.87.52-2.76.55-2.33,1.19-4.62,1.96-6.84,1.81-5.43,4.23-10.53,7.45-15.26,1.47-2.15,3.1-4.23,4.92-6.21.9-.98,1.78-1.95,2.48-3.06.3-.47.55-.96.78-1.48ZM169.51,273.83c-.32,1-.66,2.02-.98,3.02-.34,1.07-.8,1.9-2.11,1.22-5.09-2.64-9.4-6.08-12.05-11.77,3.01-.78,5.82-1.89,8.55-3.11,2.25-.99,4.46-2.04,6.67-3,1.32-.58,2.65-1.14,3.99-1.62.68.84.45,1.39.3,1.87-.46,1.4-.92,2.81-1.38,4.21-.99,3.06-2,6.11-2.99,9.17ZM188.02,283.13c-.2-2.12,1.74-11.17,3.31-15.88.28-.89.56-1.6.81-2.11,3.6,4.92,6.86,9.8,10.91,14.55-.83.4-1.66.77-2.49,1.09-4.2,1.62-8.31,2.21-12.54,2.35ZM221.65,262.77c-.27.62-.52,1.17-.75,1.66-1.86,4.05-2.36,3.52-6.19-.51-5.79-6.08-10.56-13.05-16.17-19.27-1.09-1.22-.83-2.37-.45-3.67.77-2.65,1.54-5.31,2.33-7.94,1.52-5.07,3.1-10.11,4.8-15.12.11-.33.22-.64.33-.97.84-2.49,1.32-5.1,2.82-7.86,4.07,2.57,7.31,5.62,9.58,9.41,5.25,8.75,8.01,17.76,7.73,27.01h0c-.16,5.67-1.46,11.43-4.03,17.27ZM159.59,244.37c-2.25.79-4.52,1.56-6.78,2.31-.03.02-.08.02-.12.03,3.39,5.51,6.81,11,10.23,16.49,2.25-.99,4.46-2.04,6.67-3-3.4-5.23-6.74-10.51-10-15.83ZM159.59,244.37c-2.25.79-4.52,1.56-6.78,2.31-.03.02-.08.02-.12.03,3.39,5.51,6.81,11,10.23,16.49,2.25-.99,4.46-2.04,6.67-3-3.4-5.23-6.74-10.51-10-15.83ZM159.59,244.37c-2.25.79-4.52,1.56-6.78,2.31-.03.02-.08.02-.12.03,3.39,5.51,6.81,11,10.23,16.49,2.25-.99,4.46-2.04,6.67-3-3.4-5.23-6.74-10.51-10-15.83ZM159.59,244.37c-2.25.79-4.52,1.56-6.78,2.31-.03.02-.08.02-.12.03,3.39,5.51,6.81,11,10.23,16.49,2.25-.99,4.46-2.04,6.67-3-3.4-5.23-6.74-10.51-10-15.83ZM159.59,244.37c-2.25.79-4.52,1.56-6.78,2.31-.03.02-.08.02-.12.03,3.39,5.51,6.81,11,10.23,16.49,2.25-.99,4.46-2.04,6.67-3-3.4-5.23-6.74-10.51-10-15.83ZM159.59,244.37c-2.25.79-4.52,1.56-6.78,2.31-.03.02-.08.02-.12.03,3.39,5.51,6.81,11,10.23,16.49,2.25-.99,4.46-2.04,6.67-3-3.4-5.23-6.74-10.51-10-15.83ZM159.59,244.37c-2.25.79-4.52,1.56-6.78,2.31-.03.02-.08.02-.12.03,3.39,5.51,6.81,11,10.23,16.49,2.25-.99,4.46-2.04,6.67-3-3.4-5.23-6.74-10.51-10-15.83ZM159.59,244.37c-2.25.79-4.52,1.56-6.78,2.31-.03.02-.08.02-.12.03,3.39,5.51,6.81,11,10.23,16.49,2.25-.99,4.46-2.04,6.67-3-3.4-5.23-6.74-10.51-10-15.83ZM159.59,244.37c-2.25.79-4.52,1.56-6.78,2.31-.03.02-.08.02-.12.03,3.39,5.51,6.81,11,10.23,16.49,2.25-.99,4.46-2.04,6.67-3-3.4-5.23-6.74-10.51-10-15.83ZM159.59,244.37c-2.25.79-4.52,1.56-6.78,2.31-.03.02-.08.02-.12.03,3.39,5.51,6.81,11,10.23,16.49,2.25-.99,4.46-2.04,6.67-3-3.4-5.23-6.74-10.51-10-15.83ZM159.59,244.37c-2.25.79-4.52,1.56-6.78,2.31-.03.02-.08.02-.12.03,3.39,5.51,6.81,11,10.23,16.49,2.25-.99,4.46-2.04,6.67-3-3.4-5.23-6.74-10.51-10-15.83ZM159.59,244.37c-2.25.79-4.52,1.56-6.78,2.31-.03.02-.08.02-.12.03,3.39,5.51,6.81,11,10.23,16.49,2.25-.99,4.46-2.04,6.67-3-3.4-5.23-6.74-10.51-10-15.83ZM159.59,244.37c-2.25.79-4.52,1.56-6.78,2.31-.03.02-.08.02-.12.03,3.39,5.51,6.81,11,10.23,16.49,2.25-.99,4.46-2.04,6.67-3-3.4-5.23-6.74-10.51-10-15.83ZM159.59,244.37c-2.25.79-4.52,1.56-6.78,2.31-.03.02-.08.02-.12.03,3.39,5.51,6.81,11,10.23,16.49,2.25-.99,4.46-2.04,6.67-3-3.4-5.23-6.74-10.51-10-15.83ZM159.59,244.37c-2.25.79-4.52,1.56-6.78,2.31-.03.02-.08.02-.12.03,3.39,5.51,6.81,11,10.23,16.49,2.25-.99,4.46-2.04,6.67-3-3.4-5.23-6.74-10.51-10-15.83ZM159.59,244.37c-2.25.79-4.52,1.56-6.78,2.31-.03.02-.08.02-.12.03,3.39,5.51,6.81,11,10.23,16.49,2.25-.99,4.46-2.04,6.67-3-3.4-5.23-6.74-10.51-10-15.83ZM159.59,244.37c-2.25.79-4.52,1.56-6.78,2.31-.03.02-.08.02-.12.03,3.39,5.51,6.81,11,10.23,16.49,2.25-.99,4.46-2.04,6.67-3-3.4-5.23-6.74-10.51-10-15.83ZM159.59,244.37c-2.25.79-4.52,1.56-6.78,2.31-.03.02-.08.02-.12.03,3.39,5.51,6.81,11,10.23,16.49,2.25-.99,4.46-2.04,6.67-3-3.4-5.23-6.74-10.51-10-15.83ZM159.59,244.37c-2.25.79-4.52,1.56-6.78,2.31-.03.02-.08.02-.12.03,3.39,5.51,6.81,11,10.23,16.49,2.25-.99,4.46-2.04,6.67-3-3.4-5.23-6.74-10.51-10-15.83ZM159.59,244.37c-2.25.79-4.52,1.56-6.78,2.31-.03.02-.08.02-.12.03,3.39,5.51,6.81,11,10.23,16.49,2.25-.99,4.46-2.04,6.67-3-3.4-5.23-6.74-10.51-10-15.83ZM159.59,244.37c-2.25.79-4.52,1.56-6.78,2.31-.03.02-.08.02-.12.03,3.39,5.51,6.81,11,10.23,16.49,2.25-.99,4.46-2.04,6.67-3-3.4-5.23-6.74-10.51-10-15.83ZM159.59,244.37c-2.25.79-4.52,1.56-6.78,2.31-.03.02-.08.02-.12.03,3.39,5.51,6.81,11,10.23,16.49,2.25-.99,4.46-2.04,6.67-3-3.4-5.23-6.74-10.51-10-15.83ZM159.59,244.37c-2.25.79-4.52,1.56-6.78,2.31-.03.02-.08.02-.12.03,3.39,5.51,6.81,11,10.23,16.49,2.25-.99,4.46-2.04,6.67-3-3.4-5.23-6.74-10.51-10-15.83ZM159.59,244.37c-2.25.79-4.52,1.56-6.78,2.31-.03.02-.08.02-.12.03,3.39,5.51,6.81,11,10.23,16.49,2.25-.99,4.46-2.04,6.67-3-3.4-5.23-6.74-10.51-10-15.83ZM159.59,244.37c-2.25.79-4.52,1.56-6.78,2.31-.03.02-.08.02-.12.03,3.39,5.51,6.81,11,10.23,16.49,2.25-.99,4.46-2.04,6.67-3-3.4-5.23-6.74-10.51-10-15.83ZM159.59,244.37c-2.25.79-4.52,1.56-6.78,2.31-.03.02-.08.02-.12.03,3.39,5.51,6.81,11,10.23,16.49,2.25-.99,4.46-2.04,6.67-3-3.4-5.23-6.74-10.51-10-15.83ZM159.59,244.37c-2.25.79-4.52,1.56-6.78,2.31-.03.02-.08.02-.12.03,3.39,5.51,6.81,11,10.23,16.49,2.25-.99,4.46-2.04,6.67-3-3.4-5.23-6.74-10.51-10-15.83Z"/>
        <path class="cls-2" d="M140.15,199.33c-.01-3.98-1.11-7.69-3.43-10.91-6.72-9.31-15.75-15.24-27.16-16.74-14.73-1.92-27.56,2.88-38.33,12.84-11.94,11.06-19.66,24.61-22.64,40.73-1.22,6.63-1.32,13.17.98,19.62,2.51,7.04,6.02,13.55,10.97,19.18,18.04,20.52,42.55,14.63,55.3,1.21,11.93-12.57,10.14-33.02-4.25-42.69-12.85-8.63-26.75-10.52-41.22-3.69-.29.13-.6.16-1.15.3-.1-1.37.42-2.25.83-3.14,3.53-7.79,8.72-14.33,15.14-19.89,4-3.46,8.8-5.49,13.99-6.51,7.86-1.54,14.62.71,20.41,6.14,1.53,1.41,2.38,2.91,2.16,5.21-.39,4.04,1.8,7.29,5.31,8.68,3.74,1.48,7.92.45,10.54-2.64,1.89-2.21,2.57-4.85,2.55-7.69ZM70.63,245.43c1.06-2.19,1.97-4.45,3.49-6.38,2.88-3.64,6.45-5.85,11.25-6.12,5.37-.3,10.34.84,14.89,3.59,6.51,3.95,7.35,12.01,1.76,17.15-4.89,4.48-10.65,6.55-16.64,5.55-7.18-1.78-11.38-6.14-14.69-11.59-.43-.71-.43-1.42-.07-2.19Z"/>
        <path class="cls-2" d="M300.51,248.1c.87-2.57,1.16-5.18.45-7.83-.82-3.04-2.62-4.47-5.74-4.5-4.7-.04-8.31,1.75-10.52,6.11-2.49,4.89-3.09,9.57.51,14.28,2.08,2.71,3.82,5.68,5.74,8.52,3.86,5.71,6.99,11.78,9.22,18.3,5.64,16.41-2.56,32.93-19.19,38.01-7.2,2.2-14.43,1.63-21.16-2.21-7.3-4.15-12.77-9.78-14.87-18.19-.7-2.82-1.05-5.65-.63-8.54.37-2.58,1.32-4.9,3.14-6.81,2.61-2.75,6.34-3.67,9.71-2.33,3.58,1.43,5.26,4.24,5.48,7.97.07,1.21-.1,2.42-.15,3.64-.11,2.48.73,4.58,2.66,6.14,1.97,1.6,3.94,3.21,6.65,3.44,7.62.65,13.86-6.69,11.76-14.05-1.59-5.57-4.32-10.63-7.53-15.43-2.34-3.49-4.74-6.94-6.92-10.53-8.14-13.4-4.17-32.44,8.86-41.26,7.84-5.31,16.6-6.52,25.67-3.63,5.85,1.87,10.12,5.83,12.77,11.37,3.95,8.28,3.81,16.66.25,25.03-.42,1-1.07,1.94-1.79,2.77-2.45,2.83-6.32,3.8-9.63,2.51-3.38-1.31-5.58-4.56-5.57-8.27,0-1.56.33-3.07.83-4.55Z"/>
        <path class="cls-2" d="M270.04,214.76c-.51,1.58-.96,3.18-1.54,4.73-.83,2.22-2.09,4.14-4.11,5.47-4.84,3.19-11.17.92-12.87-4.62-.56-1.84-.56-3.7-.15-5.57.67-3.03,1.64-5.98,2.82-8.83,1.94-4.67,6.22-6.87,10.65-5.66,4.39,1.2,6.94,5.33,6.27,10.32-.19,1.41-.64,2.79-.97,4.19-.04,0-.08-.02-.12-.03Z"/>
        <path class="cls-18" d="M171.59,187.5c3.08,5.36,6.28,10.66,9.56,15.89-3.09.59-6.07,1.72-8.88,3.5-1.05.66-1.97,1.38-2.47,2.57-.22.52-.48,1.01-.78,1.48-3.37-5.65-6.67-11.32-9.98-16.99,4.05-2.78,8.24-4.94,12.55-6.46Z"/>
        <path class="cls-18" d="M231.47,280.43c-3.3,4.12-7.12,7.58-11.24,10.41-7.08-11.15-14.69-21.95-22-32.93-5.63-8.46-11.07-17.05-16.4-25.7.45-1.63.95-3.25,1.46-4.87,1.46-4.54,2.93-9.08,4.41-13.62,4.18,6.47,8.45,12.89,12.71,19.31-.79,2.64-1.56,5.3-2.33,7.94-.38,1.3-.64,2.45.45,3.67,5.62,6.23,10.38,13.19,16.17,19.27,3.82,4.03,4.32,4.56,6.19.51,3.46,5.38,6.95,10.73,10.57,16Z"/>
        <path class="cls-20" d="M153.86,206.71c2.54,4.53,5.13,9.04,7.76,13.51-3.22,4.72-5.64,9.83-7.45,15.26-3.72-6.2-7.36-12.45-10.91-18.75-.09-.16-.18-.33-.28-.49.5-.9,1.02-1.8,1.58-2.68,1.65-2.59,3.38-5.05,3.72-8.34.12-1.15.59-2.19,1.26-3.13,1.06.52,2.05,1.32,2.89,2.4.55.7,1,1.46,1.43,2.23Z"/>
        <path class="cls-20" d="M211.72,295.68c-4.73,2.18-9.66,3.67-14.56,4.53-8.53-11.66-16.74-23.5-24.66-35.55.46-1.4.92-2.81,1.38-4.21.16-.49.39-1.03-.3-1.87-1.33.48-2.67,1.03-3.99,1.62-3.4-5.23-6.74-10.51-10-15.83,4.57-1.62,9.11-3.32,13.64-5,5.86,9.4,11.92,18.69,18.11,27.88-1.57,4.72-3.5,13.76-3.31,15.88,4.24-.14,8.34-.73,12.54-2.35,3.55,5.1,7.3,10.06,11.15,14.91Z"/>
        <path class="cls-17" d="M242.15,257.65c-.62,2.81-1.4,5.45-2.33,7.96-4.57-6.8-9.3-13.49-14.13-20.1h0c.28-9.26-2.48-18.27-7.73-27.02-2.27-3.79-5.52-6.84-9.58-9.41-1.5,2.76-1.98,5.37-2.82,7.86-.11.33-.22.64-.33.97-3.17-4.27-6.33-8.55-9.45-12.86-4.61-6.36-9.25-12.68-13.86-19.04-.2-.28-.4-.55-.58-.85,5.89-.76,11.98-.4,18.3,1.11,4.62,6.35,9.27,12.7,13.93,19.03,10.04,13.62,20.08,27.2,30.13,40.8-.03,3.96-.48,7.83-1.54,11.54Z"/>
        <path class="cls-18" d="M188.04,301.09c-.61.01-1.23.02-1.83,0-6.36-.09-12.49-1.12-18.36-3.03-11.79-18.1-23.16-36.43-33.98-55.12h0c.92-6.39,2.81-12.56,5.33-18.61.53.72.98,1.5,1.42,2.27,3.61,6.21,7.31,12.36,11.06,18.48.33.55.66,1.09.99,1.63,3.39,5.51,6.81,11,10.23,16.49-2.73,1.22-5.54,2.33-8.55,3.11,2.65,5.68,6.96,9.13,12.05,11.77,1.3.68,1.77-.15,2.11-1.22.32-1,.66-2.02.98-3.02,5.7,9.2,11.66,18.22,18.22,26.84.11.14.21.28.31.41Z"/>
      </g>
      <g>
        <path class="cls-17" d="M30.94,153.23c-3.06.03-5.29-2.71-4.65-5.72.32-1.51,1-2.86,1.85-4.12,1.13-1.68,2.42-3.24,3.78-4.74.78-.86,1.6-1.69,2.09-2.77.21-.45.54-.78,1.06-.68.5.09.76.47.8.98.05.61.19,1.14.61,1.66.52.64.36,1.48.16,2.19-.38,1.34-.39,2.68-.29,4.05.12,1.56.09,3.14-.22,4.68-.54,2.64-2.65,4.45-5.19,4.48Z"/>
        <path class="cls-17" d="M77.3,140.31c-1.55.04-2.71-.57-3.64-1.68-1.01-1.21-1.75-2.59-2.51-3.96-.84-1.5-1.56-3.06-2.67-4.39-.34-.41-.53-.94-1.25-.9-.45.03-.7-.37-.73-.82-.03-.45.2-.78.58-.98.6-.33,1.27-.4,1.92-.24,2.11.5,4.23.95,6.31,1.59,2.42.75,4.18,2.44,5.86,4.16,1.82,1.86,1.18,5.99-2.02,6.87-.63.17-1.25.42-1.85.36Z"/>
        <path class="cls-17" d="M80.38,88.43c2.09.03,3.83,1.19,4.45,2.85.61,1.61.04,3.39-1.51,4.72-1.92,1.65-4.29,2.17-6.67,2.65-.79.16-1.6.2-2.41.29-.85.09-1.71.1-2.45.65-.32.24-.67.2-.99-.02-.38-.27-.44-.66-.35-1.08.03-.15.08-.29.16-.42,1.32-2.45,2.62-4.9,4.54-6.96,1.2-1.28,2.59-2.25,4.35-2.58.35-.06.7-.1.87-.12Z"/>
        <path class="cls-17" d="M18.04,114.05c.45.53,1.29.97.65,1.77-.59.74-1.29.32-1.86-.12-.52-.39-1.01-.32-1.56-.11-1.65.63-3.31,1.22-4.96,1.86-1.62.62-3.27,1-5.02,1-.87,0-1.71-.18-2.5-.51-2.33-.97-2.96-3.36-1.4-5.32,1.11-1.4,2.59-2.06,4.35-2.09,2.4-.05,4.69.59,6.95,1.33.62.2,1.23.44,1.85.66.79.28,1.57.34,2.32-.16.17-.11.36-.2.55-.25.41-.11.8-.1,1.11.26.3.37.26.74,0,1.11-.14.2-.31.39-.48.59Z"/>
        <path class="cls-17" d="M42.68,80.1c0,1.79-.4,3.52-.84,5.23-.33,1.3-.49,2.57-.28,3.9.06.4.04.81.03,1.21-.02.45-.26.77-.7.89-.45.12-.8-.09-1.03-.47-1.81-3.03-3.9-5.91-4.99-9.33-.54-1.67-.86-3.34-.02-5.01.74-1.47,1.86-2.41,3.56-2.4,1.63,0,3.18,1.22,3.78,2.84.37,1.01.4,2.08.48,3.14Z"/>
        <path class="cls-18" d="M94.93,117.09c-1.58,5.37-4.85,9.39-9.77,12.04-1.94,1.05-4.06,1.58-6.28,1.51-1.07-.03-2.15-.1-3.2-.23-2.04-.27-4.03-.78-5.88-1.86-.12-.08-.28-.08-.49-.13-.16.62.22,1.08.41,1.56.49,1.23.91,2.47,1.23,3.71,1.04,3.94,1.22,7.97.47,12.08-.98,5.46-3.87,9.71-8.49,12.77-1.49.99-3.07,1.77-4.73,2.4-5.11,1.92-9.89,1.08-14.28-1.92-3.71-2.53-6.23-6.01-7.47-10.39-.67-2.36-1.21-4.74-1.42-7.16-.09-1.04-.12-2.09-.08-3.15.01-.25,0-.5,0-.75-.56-.15-.61.32-.78.57-.75,1.08-1.43,2.21-2.2,3.28-.34.47-.7.92-1.06,1.36-1.73,2.04-3.81,3.69-6.2,4.96-2.15,1.13-4.42,1.78-6.86,1.64-2.22-.13-4.44-.22-6.65-.56-3.68-.57-6.54-2.62-9.06-5.18-1.49-1.51-1.96-3.53-2.09-5.58-.34-5.01.83-9.64,3.74-13.78,1.91-2.72,4.18-5,6.87-6.78,1.2-.8,2.5-1.51,3.87-2.1.78-.34,1.63-.58,2.13-1.38-.32-.47-.85-.53-1.29-.76-.63-.33-1.23-.67-1.8-1.04-5.6-3.54-8.77-8.8-9.46-15.54-.54-5.32,1.56-9.92,5.4-13.66,5.17-5.03,11.28-5.66,17.9-3.6,2.94.91,5.42,2.44,7.59,4.4,1.28,1.16,2.46,2.47,3.54,3.9.49.64.95,1.3,1.41,1.92.56-.13.44-.56.51-.87.43-1.91.96-3.76,1.63-5.57h0c.84-2.32,1.9-4.53,3.21-6.65,3.18-5.13,7.62-8.45,13.71-9.3,5.45-.77,12.43.83,15.83,8.11.81,1.75,1.58,3.51,1.98,5.4.76,3.52.4,6.94-1.04,10.25-.06.13-.11.27-.18.39-.92,2.04-2.08,3.95-3.32,5.82-.28.41-.68.76-.77,1.39,1.37-.21,2.61-.42,3.87-.58,1.84-.23,3.56-.18,5.2.11,3.98.72,7.4,2.91,10.4,6.06,1.44,1.51,2.48,3.32,3.37,5.21,1.16,2.49,1.38,5.05.61,7.69Z"/>
        <path class="cls-2" d="M29.8,143.15c.37-.13.75-.25,1.13-.37-1.73,2.04-3.81,3.69-6.2,4.96-2.15,1.13-4.42,1.78-6.86,1.64-2.22-.13-4.44-.22-6.65-.56-3.68-.57-6.54-2.62-9.06-5.18-1.49-1.51-1.96-3.53-2.09-5.58-.34-5.01.83-9.64,3.74-13.78,1.91-2.72,4.18-5,6.87-6.78-.94,2.78-1.19,5.69-1.03,8.6.42,7.58,4.82,15.19,14.01,17.32,2.08.48,4.22.42,6.15-.27Z"/>
        <path class="cls-2" d="M27.41,79.42c2.94.91,5.42,2.44,7.59,4.4-.46,0-.9-.11-1.31-.3-2.61-1.17-5.36-1.24-8.03-.51-4.2,1.15-8.02,3.04-11.09,6.28-2.81,2.97-4.49,6.52-5.05,10.51-.53,3.8.25,7.36,2.94,10.31.27.3.54.62.73.97.22.38.34.77.38,1.15-5.6-3.54-8.77-8.8-9.46-15.54-.54-5.32,1.56-9.92,5.4-13.66,5.17-5.03,11.28-5.66,17.9-3.6Z"/>
        <path class="cls-2" d="M70.96,133.69c1.04,3.94,1.22,7.97.47,12.08-.98,5.46-3.87,9.71-8.49,12.77-1.49.99-3.07,1.77-4.73,2.4-5.11,1.92-9.89,1.08-14.28-1.92-3.71-2.53-6.23-6.01-7.47-10.39-.67-2.36-1.21-4.74-1.42-7.16.21.07.41.21.61.38.51.43.87.98,1.18,1.56.66,1.2,1.36,2.36,2.17,3.47.66.91,1.46,1.66,2.34,2.37,2.8,2.28,6,3.09,9.53,2.53,8.21-1.32,14.33-5.53,17.92-13.16.58-1.23,1.09-2.5,1.63-3.76.16-.39.33-.79.54-1.16Z"/>
        <path class="cls-2" d="M94.93,117.09c-1.58,5.37-4.85,9.39-9.77,12.04-1.94,1.05-4.06,1.58-6.28,1.51-1.07-.03-2.15-.1-3.2-.23.22-.61.73-1.07,1.2-1.53.83-.82,1.77-1.51,2.72-2.19,1.24-.88,2.4-1.85,3.47-2.94,3.14-3.21,4.36-7.06,3.96-11.51-.27-3.06-.99-5.97-2.45-8.7-.84-1.57-1.82-3.03-3.13-4.26-.39-.37-.7-.75-.9-1.14,3.98.72,7.4,2.91,10.4,6.06,1.44,1.51,2.48,3.32,3.37,5.21,1.16,2.49,1.38,5.05.61,7.69Z"/>
        <path class="cls-2" d="M75.76,91c-.06.13-.11.27-.18.39-.44-.33-.77-.79-.99-1.39-.3-.8-.53-1.64-.69-2.48-.91-4.72-3.68-8.09-7.8-10.27-4.27-2.26-8.86-3.02-13.66-1.82-3.72.93-6.44,3.27-8.78,6.16-.25.31-.47.66-.74.96-.26.28-.55.49-.85.64.84-2.31,1.9-4.53,3.21-6.65,3.18-5.13,7.62-8.45,13.71-9.3,5.45-.77,12.43.83,15.83,8.11.81,1.75,1.58,3.51,1.98,5.4.76,3.52.4,6.94-1.04,10.25Z"/>
        <path class="cls-2" d="M50.13,103.74c-.02-.72.19-1.4.45-2.06,1.87-4.8,3.45-9.7,5.08-14.58.21-.62.43-1.24.83-1.78.82-1.1,2.13-1.54,3.35-1.13,1.22.41,1.99,1.56,1.93,2.94-.02.5-.12,1.01-.29,1.48-1.57,4.53-2.93,9.13-4.37,13.7-.3.96-.61,1.93-1.14,2.8-.65,1.06-1.56,1.72-2.83,1.75-1.69.04-3-1.34-3.01-3.13Z"/>
        <path class="cls-2" d="M37.78,122.12c-.03,1.02-.5,1.84-1.22,2.52-.67.64-1.48,1.04-2.31,1.43-3.63,1.67-7.22,3.43-10.66,5.46-.53.31-1.07.58-1.67.71-1.25.27-2.51-.24-3.16-1.29-.63-1.02-.57-2.27.16-3.28.33-.46.76-.82,1.25-1.09,3.82-2.17,7.54-4.53,11.5-6.48,1.1-.54,2.24-.94,3.5-.78,1.62.2,2.66,1.31,2.62,2.8Z"/>
        <path class="cls-2" d="M62.23,120.57c-.82,0-1.32-.04-1.81-.2-2.4-.79-2.95-3.28-1.08-4.99.77-.71,1.7-1.06,2.71-1.25,3.08-.59,6.21-.78,9.32-1.15,1.05-.13,2.11-.24,3.17-.32.55-.04,1.12-.04,1.66.06,1.46.27,2.46,1.46,2.49,2.84.03,1.41-.89,2.6-2.4,2.89-1.14.22-2.31.27-3.46.41-3.11.39-6.19.95-9.27,1.52-.54.1-1.1.16-1.33.19Z"/>
        <path class="cls-2" d="M35.62,107.95c-.93-.01-1.8-.27-2.64-.63-3.69-1.57-7.11-3.64-10.57-5.64-.58-.33-1.04-.81-1.34-1.41-.51-1.04-.48-2.07.2-3.01.72-.99,1.72-1.37,2.93-1.16.66.11,1.24.42,1.81.75,3.19,1.88,6.45,3.59,9.93,4.89.57.21,1.1.51,1.57.91,1.09.93,1.51,2.22,1.1,3.39-.4,1.16-1.55,1.9-2.99,1.92Z"/>
        <path class="cls-2" d="M49.3,137.76c0-.96-.03-1.92,0-2.88.04-1.02.25-2.01.9-2.84,1.06-1.36,2.73-1.46,3.95-.23.74.75,1.12,1.69,1.17,2.73.11,2.57.12,5.14.44,7.71.17,1.37-.7,2.52-1.93,2.94-1.28.44-2.65-.05-3.45-1.22-.57-.82-.72-1.78-.8-2.73-.1-1.16-.14-2.32-.21-3.48-.02,0-.05,0-.07,0Z"/>
        <path class="cls-9" d="M30.02,114.15c.03-2.39,1.06-6.69,4.1-10.34,1.51-1.81,3.24-3.51,5.36-4.39,2.31-.96,4.53-2.24,7.03-2.69,2.71-.49,5.34-.05,7.89.92,7.39,2.82,14.81,11.55,11.7,23.4-1.19,4.53-3.62,8.22-7.35,11.02-3.67,2.76-7.83,3.67-12.34,2.81-2.85-.54-5.62-1.37-8.08-2.94-5.68-3.62-8.36-8.88-8.31-17.8Z"/>
        <path class="cls-2" d="M49.24,107.18c3.68.05,6.01,2.11,7.49,5.25,1.38,2.95.56,5.61-1.44,8.01-1.06,1.27-2.39,2.15-3.89,2.84-3.44,1.59-7.87-.25-9.36-3.55-1.04-2.3-1.51-4.49-.53-6.85.97-2.35,2.76-3.96,4.92-5.17.85-.48,1.83-.54,2.81-.52Z"/>
      </g>
      <g>
        <path class="cls-17" d="M323.3,437.02c-.17-.2-.33-.39-.51-.57h0c-2.17-2.46-4.68-4.44-7.38-5.93h0c-2.88-1.6-6-2.66-9.2-3.13-2.37-.35-4.79-.38-7.2-.08-3.49.44-6.94,1.57-10.17,3.44h0c-.46.26-.9.53-1.34.82-2.09,1.37-4.01,3.04-5.7,4.96h0c-3,3.43-5.25,7.64-6.33,12.2-2.71,11.44-.09,21.51,8.16,30,1.03,1.06,2.16,1.98,3.35,2.79,2.37,1.63,4.98,2.87,7.55,4.15.49.24,1.08.29,1.63.36.08,0,.16.02.24.03,1.04.13,2.08.21,3.13.31,1.76.17,3.48.2,5.14.08,2.89-.2,5.62-.83,8.19-1.9,2.19-.9,4.26-2.12,6.2-3.66.98-.78,1.94-1.64,2.86-2.58,1.79-1.83,3.28-3.82,4.5-5.9,6.73-11.52,4.79-26.05-3.1-35.4ZM294.87,437.86c1.45-.64,2.94-1.14,4.5-1.4.11-.02.21-.04.32-.05,2.42-.36,4.85-.19,7.15.43,3.45.93,6.61,2.86,9.05,5.6.79.89,1.49,1.86,2.12,2.91.93,1.58,1.89,3.17,2.19,5.18-.93.05-1.77.07-2.6.12-.42.03-.85.05-1.27.08-2.55.15-5.1.3-7.64.46-1.3.08-2.6.16-3.89.25-.72.05-1.28-.02-1.78-.62-.99-1.16-1.93-2.35-2.85-3.57-2.01-2.64-3.88-5.37-5.75-8.11-.47-.69-.14-1,.46-1.27ZM292.69,473.12c-.06.27-.13.55-.46.8-1.58-.84-2.78-2.17-3.91-3.55-5.46-6.66-6.32-16.76-2.09-24.25.14-.25.27-.49.43-.73.28-.42.6-.5.93-.07.27.36.52.73.78,1.11.76,1.15,1.52,2.29,2.29,3.43h0c1.67,2.51,3.34,5.01,5.02,7.49.45.67.6,1.22.23,2.01-.65,1.33-.78,2.81-1,4.25-.27,1.74-.67,3.45-1.09,5.14-.37,1.46-.76,2.91-1.12,4.38ZM303.4,477.39c-.09,0-.18,0-.27.01-.53.02-.88-.1-.81-.74.16-1.19.31-2.38.47-3.57.23-1.77.46-3.54.69-5.31.01-.09.12-.18.33-.48,2.16,2.42,4.39,4.57,6.17,7.1.67.95.65,1.02-.33,1.48-1.98.93-4.08,1.4-6.26,1.5ZM318.58,467.6c-.25.47-.55.7-.92.43h0c-.08-.06-.14-.12-.23-.22-2.06-2.43-4.1-4.88-6.23-7.41.99-.42,1.85-.34,2.67-.36,1.04-.03,2.07.01,3.11.1.98.07,1.97.17,2.95.27.79.08,1.09.39.89,1.21-.48,2.1-1.23,4.09-2.24,5.99Z"/>
        <path class="cls-17" d="M359.22,433.31c2.52,4.13,3.17,8.47,1.33,13.05-1.09,2.72-3.01,4.71-5.66,5.99-2.69,1.3-5.52,1.86-8.51,1.76-3.02-.1-5.55-1.31-7.71-3.35-1.23-1.17-1.96-2.6-2.02-4.32-.07-1.98,1.04-3.71,2.79-4.42,1.78-.72,3.69-.25,5.02,1.33.66.79,1.24,1.6,2.41,1.63,1.61.03,3.15-.23,4.49-1.17.63-.44.88-1.15,1.01-1.89.41-2.38-1-4.68-3.31-5.39-.87-.27-1.76-.34-2.66-.43-3.08-.32-6.17-.46-9.21-1.11-8.05-1.71-13.57-10.44-11.66-18.49,1.43-6.02,6.63-9.39,12.72-8.24,4.4.83,7.67,3.09,9.36,7.36.31.79.48,1.62.45,2.47-.06,1.94-1.18,3.53-2.92,4.15-1.8.64-3.73.08-5-1.47-.4-.48-.68-1.03-.91-1.61-.53-1.33-1.63-1.8-2.92-1.95-.98-.11-1.45.21-1.78,1.16-.21.6-.24,1.21-.15,1.83.2,1.54.81,2.92,1.69,4.18.57.82,1.4,1.27,2.37,1.5,1.48.35,2.98.58,4.5.72,2.02.18,4.04.31,6.05.58,4.27.57,7.85,2.35,10.24,6.11Z"/>
        <path class="cls-17" d="M262.87,463.97c-1.62,1.4-3.04,2.58-4.41,3.8-2.9,2.58-5.83,5.13-8.57,7.89-1.48,1.49-3.23,2.03-5.25,1.27-2.51-.95-3.55-3.86-2.34-6.32.46-.93,1.2-1.63,1.94-2.32,4.91-4.56,9.96-8.95,15.02-13.35.89-.77,1.74-1.6,2.69-2.3,3.11-2.3,6.66-1.21,8.04,2.42.2.52.36,1.07.49,1.61,2.49,9.82,4.99,19.63,7.45,29.45,1.15,4.58,1.93,9.25,3.34,13.78.27.86.35,1.76.23,2.67-.27,1.96-1.59,3.51-3.45,3.93-1.95.44-3.55-.19-4.79-1.74-.72-.9-1.09-1.96-1.33-3.07-.38-1.76-.69-3.54-1.11-5.28-2.47-10.23-4.96-20.45-7.44-30.67-.12-.49-.27-.96-.5-1.79Z"/>
        <path class="cls-17" d="M309.74,420.55c-.36-.54-.88-1.22-1.29-1.95-1.17-2.13-.71-4.55,1.1-5.91,1.73-1.31,4.17-1.16,5.87.48,1.55,1.5,2.74,3.27,3.63,5.24.16.36.27.74.35,1.13.41,2.1-.5,4.08-2.27,5.01-1.71.89-3.79.52-5.29-.92-.87-.83-1.41-1.89-2.1-3.07Z"/>
        <path class="cls-18" d="M308.68,451.18c1.3,10.14,2.57,20.27,3.77,30.42.12.99.25,1.97.4,2.95-2.57,1.07-5.3,1.7-8.19,1.9-.38-3.03-.82-6.04-1.26-9.07,2.18-.1,4.28-.56,6.26-1.5.98-.46,1-.53.33-1.48-1.78-2.54-4.01-4.68-6.17-7.1-.22.3-.32.38-.33.48-.23,1.77-.46,3.54-.69,5.31-.52-3.69-1-7.4-1.34-11.12-.44-4.91-.9-9.82-1.29-14.73.92,1.21,1.86,2.4,2.85,3.57.5.6,1.06.67,1.78.62,1.3-.09,2.59-.17,3.89-.25Z"/>
        <path class="cls-18" d="M306.21,427.39c0,3.16.27,6.31.63,9.45-2.3-.62-4.73-.79-7.15-.43-.11.01-.21.03-.32.05-.13-2.32-.25-4.64-.34-6.96-.03-.73-.03-1.45-.02-2.18,2.41-.3,4.83-.27,7.2.08Z"/>
        <path class="cls-20" d="M288.84,430.75c-.02,6.44.79,12.78,1.81,19.11-.77-1.14-1.53-2.28-2.29-3.43-.26-.37-.51-.74-.78-1.11-.33-.43-.65-.35-.93.07-.16.23-.29.48-.43.73-4.23,7.5-3.36,17.6,2.09,24.25,1.13,1.38,2.34,2.71,3.91,3.55.32-.25.39-.53.46-.8.36-1.47.75-2.92,1.12-4.38.89,5.77,1.71,11.55,2.59,17.32-.08,0-.16-.02-.24-.03-.55-.06-1.14-.12-1.63-.36-2.57-1.29-5.18-2.53-7.55-4.15-.85-5.96-1.87-11.9-2.74-17.87-1.3-9-2.06-18.04-2.43-27.12h0c1.69-1.92,3.6-3.6,5.7-4.96.44-.29.88-.56,1.34-.82Z"/>
        <path class="cls-2" d="M322.79,436.44h0c.11,2.11.37,4.22.57,6.31.95,9.9,1.99,19.78,3.03,29.67-1.21,2.08-2.71,4.06-4.5,5.9-.92.94-1.88,1.8-2.86,2.58-.52-4.28-.99-8.57-1.39-12.86.37.27.67.04.92-.43,1.01-1.9,1.76-3.89,2.24-5.99.2-.82-.1-1.13-.89-1.21-.99-.1-1.97-.2-2.95-.27-.24-3.14-.47-6.28-.65-9.42.42-.03.85-.05,1.27-.08.83-.05,1.67-.08,2.6-.12-.3-2.01-1.25-3.6-2.19-5.18-.62-1.05-1.33-2.02-2.12-2.91-.06-1.45-.13-2.91-.18-4.37-.07-2.08-.2-4.16-.3-6.24-.02-.44-.03-.87,0-1.31,2.71,1.5,5.21,3.48,7.38,5.93Z"/>
      </g>
      <g>
        <circle class="cls-27" cx="146.08" cy="440.37" r="64.28"/>
        <path class="cls-30" d="M114.92,452.99c-2.89,0-6.15-1-9.76-3-.58-.32-.77-1.06-.43-1.63l1.47-2.47c.32-.54,1.02-.72,1.58-.42,3.57,1.97,6.56,2.69,8.71,2.1,2.05-.57,3.93-2.36,5.02-4.8,1.2-2.69,1.41-5.82,1.46-8.24,0-.18,0-.36,0-.53-3.41,2.92-8.49,4.37-12.85,3.39-5.22-1.17-9.52-6.06-11.52-13.09-1.69-5.95-.96-11.86,2.02-16.2,3.62-5.28,10.64-7.5,15.98-5.06,4.38,2,7.65,5.76,9.23,10.59.37,1.13.7,2.32.98,3.58h.05c.07.38.13.76.19,1.14.89,4.5,1.25,9.8,1.13,16.29-.06,2.92-.32,6.72-1.91,10.27-1.75,3.9-4.81,6.71-8.4,7.7-.94.26-1.92.39-2.95.39ZM111.9,407.26c-2.57,0-5.35,1.42-6.97,3.79-2.06,3.01-2.55,7.43-1.3,11.82,1.13,3.98,3.74,8.55,7.65,9.43,3.04.68,7.65-.67,9.65-3.76.59-.9,1.79-3.54,1.01-9.21-.29-1.47-.64-2.83-1.05-4.09-1.12-3.42-3.4-6.07-6.44-7.46-.79-.36-1.65-.53-2.54-.53Z"/>
        <path class="cls-30" d="M149.77,447.08c-3.35,0-6.81-1.28-9.57-3.67-3.2-2.77-5.46-6.89-6.53-11.9-.9-4.23-1.41-7.72-1.12-12.01h0c.34-5.02.98-10.7,4.4-14.68,3.63-4.23,9.41-6.13,14.37-4.73,3.39.96,6.52,3.45,8.81,7.01,3.44,5.36,4.77,12.33,4.07,21.3-.24,3.05-.68,6.62-2.2,10-1.71,3.8-4.51,6.6-7.87,7.89-1.38.53-2.85.78-4.35.78ZM147.98,404.86c-2.54,0-5.25,1.24-7.07,3.37-2.37,2.76-2.87,7.45-3.15,11.63h0c-.25,3.69.2,6.78,1.01,10.57.58,2.71,1.89,6.48,4.84,9.04,2.52,2.18,6,2.97,8.65,1.96,2.04-.78,3.85-2.65,4.98-5.15,1.19-2.65,1.56-5.66,1.76-8.26.6-7.8-.46-13.72-3.27-18.09-1.59-2.49-3.66-4.2-5.83-4.81-.62-.17-1.27-.26-1.93-.26Z"/>
        <path class="cls-30" d="M182.88,442.35c-1.52,0-3.2-.28-5.05-.85-2.53-.77-4.65-2.27-6.44-4.55-.4-.51-.29-1.26.25-1.62l2.46-1.68c.48-.33,1.14-.23,1.5.23,1.1,1.36,2.28,2.19,3.75,2.64,2.6.79,4.55.82,5.8.07,1.83-1.09,3.05-3.87,2.56-5.84-.48-1.9-1.83-3.25-4.38-4.36-.54-.24-1.47-.47-2.36-.7-1.64-.42-3.33-.85-4.63-1.67-3.34-2.12-4.95-6.6-3.92-10.91,1-4.2,4.95-7.36,9.19-7.36,4.87,0,7.54,3.75,8.77,5.96.31.55.1,1.26-.47,1.54l-2.66,1.35c-.53.27-1.18.07-1.48-.44-1.29-2.2-2.59-3.2-4.16-3.2-1.83,0-3.67,1.51-4.11,3.36-.44,1.83-.01,4.24,1.64,5.29.6.38,2,.73,3.12,1.02,1.14.29,2.23.57,3.16.97,4.07,1.77,6.48,4.35,7.37,7.88,1.05,4.21-1.12,9.3-4.95,11.58-1.43.85-3.07,1.28-4.94,1.28Z"/>
        <path class="cls-13" d="M163.65,396.13c-.36.09-.6.45-.55.82l1.55,11.3c.02.13.04.28.15.37.09.07.22.08.34.08l2.82.05c.12,0,.26,0,.34-.09.07-.07.09-.18.11-.29.5-3.74,1-7.47,1.49-11.21.03-.19.05-.4-.01-.58-.14-.41-.63-.56-1.06-.64-1.71-.3-3.47-.26-5.18.18Z"/>
        <rect class="cls-12" x="97.61" y="453.67" width="110.26" height="34.94" rx=".9" ry=".9" transform="translate(-64.4 26) rotate(-8.04)"/>
        <g>
          <path class="cls-13" d="M106.53,488.7c-.71,0-1.33-.53-1.42-1.26l-2.43-19.54c-.09-.75.42-1.45,1.16-1.59l8.26-1.52c.78-.14,1.53.37,1.67,1.15.14.78-.37,1.53-1.15,1.67l-6.93,1.27,2.26,18.2c.1.79-.46,1.5-1.25,1.6-.06,0-.12.01-.18.01Z"/>
          <path class="cls-13" d="M106.71,479.11c-.66,0-1.26-.46-1.4-1.14-.16-.78.33-1.54,1.11-1.7l5.05-1.06c.78-.16,1.54.33,1.7,1.11.16.78-.33,1.54-1.11,1.7l-5.05,1.06c-.1.02-.2.03-.3.03Z"/>
          <path class="cls-13" d="M123.17,486.06c-1.62,0-3.25-.84-4.4-2.29-1.06-1.34-1.57-2.96-1.89-4.23-.89-3.5-1.11-7.09-.66-10.67.02-.2.09-.38.18-.54,0-.82.18-1.64.55-2.38,1.26-2.5,4.51-3.71,7.1-2.64,1.58.65,2.9,2.07,3.82,4.09.15.32.28.65.4.98.41-.43,1.06-.57,1.63-.31.72.33,1.04,1.18.71,1.9-.34.75-.84,1.41-1.47,1.98.25,1.84.26,3.89.04,6.23-.14,1.56-.39,3.22-1.19,4.71-.98,1.83-2.71,3.05-4.52,3.17-.1,0-.21.01-.31.01ZM118.88,473.1c.05,1.94.31,3.87.79,5.73.27,1.05.64,2.25,1.36,3.15.63.79,1.5,1.25,2.27,1.2.81-.06,1.67-.71,2.18-1.66.53-.98.72-2.15.86-3.61.15-1.63.18-3.08.09-4.4-.76.26-1.6.45-2.49.54-1.98.21-3.57-.06-4.86-.83-.06-.04-.13-.08-.19-.12ZM122.03,465.79c-1.01,0-2.06.57-2.51,1.45-.59,1.17-.1,2.85,1.02,3.52.72.43,1.76.58,3.08.44.43-.05,1.4-.19,2.34-.6-.18-.71-.42-1.38-.71-2-.43-.94-1.18-2.16-2.31-2.63-.29-.12-.6-.18-.92-.18Z"/>
          <path class="cls-13" d="M135.46,484.78c-.72,0-1.34-.54-1.42-1.28-.73-6.67-1.43-13.43-2.08-20.09-.07-.67.35-1.3.99-1.51,3.67-1.18,7.88.24,9.78,3.29,1.51,2.41,1.54,5.62.07,8.16-1.32,2.29-3.79,3.91-6.51,4.28.2,1.86.4,3.71.6,5.56.09.79-.48,1.5-1.27,1.58-.05,0-.11,0-.16,0ZM134.93,464.4c.34,3.44.69,6.91,1.06,10.38,1.81-.27,3.45-1.35,4.32-2.86.93-1.61.92-3.7-.02-5.21-1.03-1.65-3.24-2.56-5.36-2.32Z"/>
          <path class="cls-13" d="M144.16,483.48c-.38,0-.75-.15-1.03-.44l-5.54-5.76c-.55-.57-.53-1.48.04-2.03.57-.55,1.48-.53,2.03.04l5.54,5.76c.55.57.53,1.48-.04,2.03-.28.27-.64.4-.99.4Z"/>
          <path class="cls-13" d="M150.64,482.73c-.69,0-1.28-.49-1.41-1.17-1.22-6.43-2.14-12.99-2.73-19.51-.07-.72.42-1.38,1.13-1.53,2.24-.47,4.53-.81,6.8-1.03.79-.07,1.49.51,1.56,1.29.07.79-.51,1.49-1.29,1.56-1.75.16-3.5.41-5.23.73.54,5.59,1.33,11.2,2.34,16.72,2.07-.13,4.13-.45,6.13-.97.77-.2,1.55.26,1.75,1.03s-.26,1.55-1.03,1.75c-2.61.67-5.3,1.05-8,1.12-.01,0-.02,0-.04,0Z"/>
          <path class="cls-13" d="M150.49,474.17c-.69,0-1.3-.51-1.42-1.21-.12-.78.41-1.52,1.2-1.64,1.49-.23,3.02-.43,4.52-.59.79-.08,1.49.49,1.58,1.28.08.79-.49,1.49-1.28,1.58-1.46.15-2.93.34-4.38.57-.07.01-.15.02-.22.02Z"/>
          <path class="cls-13" d="M168.23,480.04c-.25,0-.51-.07-.73-.2-1.23-.73-1.84-2.02-2.24-2.87-2.48-5.26-4.79-10.69-6.87-16.12-.28-.74.09-1.57.83-1.85.74-.28,1.57.09,1.85.83,1.96,5.14,4.14,10.26,6.47,15.25,1.17-5.54,2.06-11.17,2.66-16.78.08-.79.8-1.36,1.58-1.27.79.08,1.36.79,1.27,1.58-.73,6.81-1.88,13.65-3.43,20.33-.1.45-.41.82-.83,1-.18.08-.37.12-.56.12Z"/>
          <path class="cls-13" d="M179.63,479.33c-.72,0-1.33-.54-1.42-1.25l-2.55-20.01c-.09-.74.39-1.43,1.12-1.58,2.68-.58,5.42-1,8.15-1.24.79-.07,1.49.51,1.56,1.3.07.79-.51,1.49-1.3,1.56-2.18.19-4.36.5-6.51.92l2.22,17.4c2.12-.12,4.22-.44,6.27-.98.77-.2,1.55.26,1.75,1.03.2.77-.26,1.55-1.03,1.75-2.69.7-5.46,1.08-8.23,1.12,0,0-.01,0-.02,0Z"/>
          <path class="cls-13" d="M179.95,470.35c-.65,0-1.24-.45-1.4-1.11-.18-.77.31-1.54,1.08-1.72,1.52-.35,3.07-.6,4.62-.76.79-.08,1.49.5,1.57,1.29.08.79-.5,1.49-1.29,1.57-1.43.14-2.86.38-4.26.7-.11.02-.22.04-.32.04Z"/>
          <path class="cls-13" d="M193.36,478.07c-.7,0-1.31-.51-1.42-1.23-.98-6.72-1.72-13.56-2.2-20.34-.02-.29-.06-.83.22-1.38.32-.65.89-.95,1.29-1.13,1.54-.68,3.18-.66,4.43-.58,2.1.15,3.96,1.6,4.88,2.98,1.87,2.81,2.16,6.22.8,9.35-1.54,3.53-4.71,4.4-7.38,4.72.25,1.99.51,3.97.8,5.95.11.78-.43,1.51-1.21,1.63-.07.01-.14.02-.21.02ZM192.62,456.54c.26,3.69.61,7.39,1.02,11.09,2.86-.35,4.3-1.21,5.09-3.02.98-2.25.78-4.6-.56-6.61-.44-.66-1.57-1.63-2.69-1.71-.86-.06-1.93-.08-2.86.25Z"/>
          <path class="cls-13" d="M202.92,476.2c-.37,0-.75-.14-1.03-.43-1.83-1.87-3.61-3.83-5.32-5.81-.52-.6-.45-1.51.15-2.02.6-.52,1.51-.45,2.02.15,1.66,1.94,3.41,3.85,5.2,5.68.55.57.54,1.48-.03,2.03-.28.27-.64.41-1,.41Z"/>
        </g>
      </g>
    </g>
  </g>
</svg>